<svg data-name="Layer 1" xmlns="http://www.w3.org/2000/svg" viewBox="0 0 3272 587"><defs><clipPath id="a"><path fill="none" d="M1144 22h119v181h-119z"></path></clipPath></defs><path d="M770 133v-1l-1-6V93l1-6v-1h-31l-1 1 1 6v33l-1 6 1 1zM815 103l11-15 1-1v-1h30v1l-12 17a2 2 0 0 0 0 2l17 27h-37v-3l-10-15v11l1 6v1h-30l-1-1 1-6V93l-1-6 1-1h30v1l-1 6v10zM900 116a1 1 0 0 1 1-1h19v-12h-1-18a1 1 0 0 1-1-1v-2a1 1 0 0 1 1-1h17l6 1 1-1V86h-53l-1 1 1 6v33l-1 6 1 1h53v-14l-1-1-6 1h-17a1 1 0 0 1-1-1v-2zM1009 133l-18-43a4 4 0 0 1 0-2l-1-2h-41l-1 2a4 4 0 0 1 0 2l-16 43h26v-1a3 3 0 0 1 0-2l2-4a2 2 0 0 1 2-2h11a2 2 0 0 1 2 2l1 4a3 3 0 0 1 1 2v1zm-45-18v-1l2-6 1-1v1l3 6-1 1zM3148 151h17a52 52 0 0 1 8 1 11 11 0 0 1 5 2 11 11 0 0 1 3 3 10 10 0 0 1 1 5 10 10 0 0 1-1 6 10 10 0 0 1-5 4 11 11 0 0 1 6 4 10 10 0 0 1 3 7 13 13 0 0 1-2 5 12 12 0 0 1-4 5 13 13 0 0 1-6 2h-25zm9 8v10h12a6 6 0 0 0 4-2 5 5 0 0 0 1-3 5 5 0 0 0-1-4 5 5 0 0 0-4-1h-7zm0 17v12h8a40 40 0 0 0 6 0 5 5 0 0 0 4-6 6 6 0 0 0-1-3 5 5 0 0 0-2-2l-8-1zM3190 151h18a52 52 0 0 1 8 1 11 11 0 0 1 4 2 11 11 0 0 1 3 3 10 10 0 0 1 2 5 10 10 0 0 1-6 10 11 11 0 0 1 6 4 10 10 0 0 1 2 7 13 13 0 0 1-1 5 12 12 0 0 1-4 5 13 13 0 0 1-6 2h-26zm9 8v10h12a6 6 0 0 0 4-2 5 5 0 0 0 1-3 5 5 0 0 0-1-4 5 5 0 0 0-3-1h-8zm0 17v12h8a40 40 0 0 0 6 0 5 5 0 0 0 5-6 6 6 0 0 0-1-3 5 5 0 0 0-3-2l-8-1zM3232 151h17a52 52 0 0 1 8 1 11 11 0 0 1 8 5 10 10 0 0 1 1 5 10 10 0 0 1-1 6 10 10 0 0 1-5 4 11 11 0 0 1 6 4 10 10 0 0 1 3 7 13 13 0 0 1-2 5 12 12 0 0 1-4 5 13 13 0 0 1-6 2h-25zm9 8v10h12a6 6 0 0 0 3-2 5 5 0 0 0 2-3 5 5 0 0 0-1-4 5 5 0 0 0-4-1h-7zm0 17v12h8a40 40 0 0 0 6 0 5 5 0 0 0 4-6 6 6 0 0 0-1-3 5 5 0 0 0-2-2l-8-1zM3245 122h-74l-3 9h20l4 12h32l4-12h20l-3-9zM3209 0c-1 3-1 10 5 14l28 20c13 10 7 28 2 34l-17 23s4-12-3-17l-29-22c-7-6-9-21-2-31l16-21zM3193 59a9 9 0 0 0 4 9l21 17c4 3 5 12 1 17l-11 16a9 9 0 0 0-4-9l-20-16c-4-3-7-10-2-19l11-15z" fill="#fff"></path><path fill="#edd2d1" d="M1170 22l-25 26v66l22 22h54v23h-28v-15h-48v36l22 23h75l21-22v-67l-22-22h-50V67h28v17h44V47l-24-25h-69z"></path><g clip-path="url(#a)"><path d="M1147 49v64l21 20h56v29h-34v-15h-42v32l20 21h72l21-20v-65l-22-20h-51V64h34v17h39V49l-24-24h-65l-24 24" fill="#f27b64"></path><path fill="#edd2d1" d="M1173 28l-22 23v61l18 19h58v35h-40v-15h-36v27l19 20h69l19-19v-62l-20-19h-53V61h40v17h33V51l-22-23h-63z"></path><path d="M1216 122" fill="#a32035"></path><path d="M1206 25a3 3 0 0 0-2 1 2 2 0 0 0-1 1 4 4 0 0 0 0 1l-1 3-3 1a3 3 0 0 0 0 2 8 8 0 0 0 0 3l1 1c-3 2-3 4-3 5a2 2 0 0 0 0 1 2 2 0 0 0 1 1c-3 2-5 4-5 6a4 4 0 0 0 0 2c-2 1-3 2-3 4 0 3 3 4 4 4h1a11 11 0 0 1 5-2c0 4-6 6-6 6a15 15 0 0 0-12 8 5 5 0 0 0-1 4 3 3 0 0 0 1 2c3 1 8-2 11-4a2 2 0 0 1 2-1 2 2 0 0 1 1 1h1a8 8 0 0 1 1 1l-11 5-1 1-5 4c-3 1-5 3-5 5a4 4 0 0 0 0 1 5 5 0 0 0 1 3h1c2 1 10-1 15-2l3-1v1l-3 5-3 3c-10 3-10 6-10 7v2l9-1h2l2 1a14 14 0 0 1-1 3h-4l-1 1a3 3 0 0 1-1 1c-2-1-4 1-4 1h-1v1a7 7 0 0 1-2 1l-2 2a3 3 0 0 0 1 2c-1 1-4 1-4 3a2 2 0 0 0 1 2c1 1 3 2 17-4a8 8 0 0 1-1 1 8 8 0 0 1-4 2c-6 1-8 4-8 5a4 4 0 0 0 0 4c1 1 1 1 7-1a21 21 0 0 1-1 4l-5 4c-6 4-10 15-10 16v1a3 3 0 0 0 1 3c2 1 5-1 6-1l1-2 4-2c3 0 6-2 7-3a1 1 0 0 1 1-1c4 1 7-4 8-6 1 0 2 0 2 2l1 6v21l-2 4a8 8 0 0 1-1 1 13 13 0 0 0-2 1c-4 1-4 3-5 5a5 5 0 0 1-2 3l-2 1h-1c-4 1-5 4-5 4l-1 3h52v-3c0-2-2-4-7-5a6 6 0 0 1-3-3l-6-4c-2 0-3-4-4-8a8 8 0 0 1 0-3v-8-6-9a10 10 0 0 0 4 1h7l8 5c3 1 5 3 7 1a3 3 0 0 0 1-3c-2-12-9-14-10-14a4 4 0 0 1-1-1c2-1 3-3 3-5l-4-3h-1c-3 1-6-1-7-2-3-2-4-4-4-5a1 1 0 0 1 0-1h1l6 3-1-1a5 5 0 0 0 7 1l1-1a11 11 0 0 1 2-2 4 4 0 0 0 2-3 3 3 0 0 0 0-1c-1-3-5-4-9-4l-3-1-6-6 6 1a8 8 0 0 0 4 0 2 2 0 0 0 2-3l-6-6c-4-1-6-5-6-5a8 8 0 0 1-1-2 14 14 0 0 1 0-2l4 1v1h1a5 5 0 0 1 2 1h12v-1c0-8-5-10-5-10l-1-1a6 6 0 0 1-1-1 6 6 0 0 0-6-3 5 5 0 0 0-2-1h-1a5 5 0 0 0 0-1h11a3 3 0 0 0 1-2c0-3-7-6-13-8l-5-4v-1h3c3 0 5-2 5-3h1l-1-1a8 8 0 0 0-4-4 2 2 0 0 0 1-3s0-2-3-4c2-1 0-4-3-6v-1a4 4 0 0 0 2-3 2 2 0 0 0-1-2 6 6 0 0 1-3-1v-3-1a2 2 0 0 0-1-2 2 2 0 0 0-1-1" fill="#f27b64"></path><path d="M1210 147v25a9 9 0 0 0 0 4c1 3 2 7 5 9 7 3 4 4 10 6s5 3 5 5h-48s2-3 4-3l4-2c2-1 2-6 6-8l4-1c1-1 2-1 2-6l1-8v-13l-1-7c-1-2-2-3-5-2 0 0-3 6-7 5a3 3 0 0 0-2 2s-3 3-6 2c0 0-4 0-6 3v1s-5 3-5 0c0 0 4-12 10-16l5-5s4-6 2-6l-8 1s1-4 8-5a13 13 0 0 0 4-3s4-3 3-5c0 0-2-1-4 1 0 0-15 6-15 4l5-2s0-3-2-2c0 0-1-1 1-2l3-2s2-2 3-1c0 0 3 0 3-2h5s1-5 0-6l-2-1a2 2 0 0 0-3 0l-7 1s-1-3 8-5c0 0 4-2 4-4 0 0 6-6 4-7 0 0 0-3-5-1l-15 3s-3-4 3-7c0 0 6-2 7-5l11-5s4-2-2-3c0 0-2-3-5 0 0 0-7 4-9 3 0 0-1-1 1-3a13 13 0 0 1 10-8s9-2 7-9c0 0-2-1-7 2 0 0-6-2 1-5l2-3s-2 2-3 0c0-1 0-2 2-3 3-1 2-2 6-2a1 1 0 0 0 0-2c-3 0-5-4 1-6v-2h-2s-2-4 2-4a10 10 0 0 0 2-4s-1-1 1-1v2a8 8 0 0 1 1 2s-1 2 3 3c1 0 1 3-2 3 0 0-1 1 2 3 0 0 4 4 0 5 0 0 6 4 4 5h-3l1 2c1 1 5 1 6 4 0 0-1 2-4 2 0 0-6-2-5 3 0 0 1 3 7 5 0 0 14 5 11 8l-15-2v2s4-1 4 2l1 2 2 1s4-1 5 1l3 3s4 2 4 8h-9a7 7 0 0 0-3-1s-3-4-6-2a14 14 0 0 0 0 6c0 1 3 5 7 6l5 5-4 1-8-1a7 7 0 0 0 0 2c2 4 5 5 10 8 0 0 12 1 7 5l-3 3a4 4 0 0 1-4 0s-9-6-9-2c0 0-3 3 4 9l8 2s6 1 1 5c0 0-3 2 1 3 0 0 7 1 9 13 0 0 1 4-5 0 0 0-6-5-9-5h-7a7 7 0 0 1-4-2s-2-1-2 1" fill="#ffe3e3"></path></g><path d="M2806 96h-23V75h71v21h-23v61h-25zM2932 75h41q21 0 29 12 8 13 8 29 1 41-42 41h-36zm25 61h10l10-2a16 16 0 0 0 5-5 24 24 0 0 0 3-7 41 41 0 0 0 0-7v-5a18 18 0 0 0-3-7 16 16 0 0 0-6-5q-4-2-11-2h-8zM2927 136h-44v-10h44v-20h-44V96h44V75h-69v82h69v-21z" fill="#fff"></path><path d="M2349 110h1l10-1a5 5 0 0 0 2-5 5 5 0 0 0-2-4l-7-1h-2zm-20 29l9-51h15a66 66 0 0 1 9 0 18 18 0 0 1 6 2 14 14 0 0 1 6 5 16 16 0 0 1 2 9 19 19 0 0 1-2 9 16 16 0 0 1-6 6 16 16 0 0 1-5 2 61 61 0 0 1-10 0h-6l-3 18zm62-16a7 7 0 0 0 2 5 8 8 0 0 0 6 2 9 9 0 0 0 6-3 10 10 0 0 0 3-7 7 7 0 0 0-2-5 8 8 0 0 0-6-2 9 9 0 0 0-7 3 10 10 0 0 0-2 7zm15 12a19 19 0 0 1-7 4 17 17 0 0 1-7 2 14 14 0 0 1-10-5q-5-5-5-12 0-9 6-15a18 18 0 0 1 14-6 15 15 0 0 1 7 1 16 16 0 0 1 6 5l1-5h12l-6 35h-12zm31 3l-11-34h14l3 15v1a29 29 0 0 1 1 5 31 31 0 0 1 1-3l2-3 7-15h15l-30 51h-14z" fill="#fff" fill-rule="evenodd"></path><path d="M2487 111h1q7 0 9-2c2-1 3-2 3-5a5 5 0 0 0-2-4l-7-1h-2zm-18 29l8-52h14a57 57 0 0 1 9 0 16 16 0 0 1 5 2 14 14 0 0 1 6 5 17 17 0 0 1 2 9 20 20 0 0 1-2 9 15 15 0 0 1-6 6 14 14 0 0 1-5 2 53 53 0 0 1-9 1h-6l-2 18zm57-17a8 8 0 0 0 2 6 7 7 0 0 0 6 2 8 8 0 0 0 6-3 11 11 0 0 0 3-8 7 7 0 0 0-3-5 7 7 0 0 0-5-2 8 8 0 0 0-6 3 11 11 0 0 0-3 7zm14 12a18 18 0 0 1-6 4 15 15 0 0 1-6 2 12 12 0 0 1-10-5q-4-4-4-12 0-9 5-15a17 17 0 0 1 13-6 14 14 0 0 1 7 1 16 16 0 0 1 5 5l1-5h12l-6 36h-11zm29-50h13l-9 55h-12zM2242 150l10-65c0-2 1-3 3-3h16a76 76 0 0 1 12 1 22 22 0 0 1 7 2 18 18 0 0 1 8 7 23 23 0 0 1 2 11 26 26 0 0 1-2 12 21 21 0 0 1-8 9 28 28 0 0 1-7 2c-4 2-10 2-15 2-2 1-3 2-3 4l-3 18a4 4 0 0 1-3 3h-15a2 2 0 0 1-2-3z" fill="#edd2d1" fill-rule="evenodd"></path><path d="M2223 140l11-74c0-2 1-4 3-4h19l13 1c32-2 28 33 8 48l-7 3-18 1c-2 1-3 3-3 5l-4 20a5 5 0 0 1-3 4h-17c-2-1-3-2-2-4z" fill="#fff" fill-rule="evenodd"></path><path d="M1819 132v-22l12-1v45h-12zm28-9V91l13-2v65h-13zm16 24v-7l19-1v15h-19zm24-27V85l15-2v71h-15zm18 26v-8h22v16h-22zm27-29V79l17-2v77h-17zm21 29v-9l12-1h13v18h-26zm31-1v-9l28-1 30-1h1v20h-59zm3-12a20 20 0 0 1 2-2l27-26a23 23 0 0 0 5-11 11 11 0 0 0 0-4 6 6 0 0 0-2-3 8 8 0 0 0-5-2h-1V75v-9a14 14 0 0 1 2 0 33 33 0 0 1 4 0 23 23 0 0 1 7 1 23 23 0 0 1 15 15 21 21 0 0 1 1 7 29 29 0 0 1 0 6c-2 11-9 20-23 35l-2 2h-14l-16 1zm-124-4v-7-8l12-1 1 8v7h-1l-5 1h-7zm90-5v-9-9l16-1v18l-7 1h-9zm-145-21v-6l34-5v14l-34 4zm55 1v-8a71 71 0 0 1 0-7l19-3v15l-19 3v-1z" fill="#fff"></path><path d="M1984 103v-2c0-8 2-15 4-20a25 25 0 0 1 3-4c4-5 9-9 17-11a10 10 0 0 1 1 0v20c-4 2-5 4-6 8a24 24 0 0 0 0 5 31 31 0 0 1 0 3l-18 1h-1zm-31-9V76l12-2 13-1v18l-12 1-13 2z" fill="#fff"></path><path d="M993 535c-3 1-5-4-6-6-2 2-7 9-13 7-4-2-1-9 0-11 1-4 0-2-1-4 1-2 4-2 6 0s1 6 0 8c4-1 8-6 11-10l3-3c2 2 1 6 0 9v10zm-42-5l9-3c1-1 6-17 10-15v1c1 3-2 9-2 12h4c0 2-2 2-4 3-4 3 0 18-9 16v-10l-7 2-4 2v4c-2 4-3 13-8 11-1-1-2-1-2-3a16 16 0 0 1 0-5l2-7c-3 0-5 0-6-3 0-4 6-3 9-4 2-4 4-12 9-17 7-8 0 14-1 15zm59-18c4 0 14-3 15-2s-11 5-14 6l-4 3-5 16c-1 2-1 4-3 4-4-6 1-14 2-20-3 0-6 0-6-3s4-2 8-2l5-8c2-2 4-2 4 1l-2 5zm-58-1c-5 1-7-6-3-13l6-9c1-2 0-2 3-2 3 5-2 13-4 18-1 2-3 5-2 6zm17-8c11 0 16 2 22 1 0 0 8-3 5 1a9 9 0 0 1-1 1c-8 4-17 1-28 3-4 1-9 3-10 1-2-3 6-9 9-12l7-7c-2 0-12 2-12-2 0-2 1-1 1-1 1-1 17-3 19-2 1 3 0 3-1 5-4 6-9 9-11 12zm-41 0l-5 12c-1 4-3 11-7 10-3-3 2-17 3-20a79 79 0 0 1 9-17h-4c-4-5 15-14 23-3 7 9-7 21-18 20l-1-1zm97-14l5 2c-1 2-2 3-5 3-4 1-4 0-7-1-2 3-8 5-13 4-1 3-6 4-10 4l-14 1c-2-4 4-8 5-9l8-7-8 1c-3 0-5-3-3-5l11-2c3 0 9-2 9 2 0 3-4 6-5 7l-6 6c1 2 3 2 6 2a25 25 0 0 0 6-1c-2-6 1-9 6-13 4-3 12-5 16-3 1 4-2 5-1 9zm-69-5c-3-6 9-13 11-12 1 1-3 7-4 8-1 2-3 5-7 4zm39-52c3 0 4 1 4 3l3 11 16 5a131 131 0 0 1 14 6c2 1 6 3 4 6-1 3-5 2-8 2-36 0-62 3-96 8-3 0-16 3-18 1-3-2 8-8 10-9a129 129 0 0 1 14-7c14-6 10-2 17-14l5-5 35-7zm-46-18c1 1-2 2-6 3a149 149 0 0 0-18 9c-15 8-27 24-32 41-6 15-5 50 1 64 6 13 7 13 16 22 8 8 23 18 34 21l12 2c2 0 4 1 3 2-9 3-35-7-43-13-10-7-17-15-24-25-9-12-11 11 16 32 25 19 66 18 94 6 21-10 37-23 47-43a89 89 0 0 0 8-21c4-15 2-39-1-54-6-23-25-37-44-46-14-6-27-4-22-8 5-3 21 3 26 5a133 133 0 0 1 20 12c29 20 35 64 27 96a89 89 0 0 1-9 23c-8 14-19 24-32 32-2 1-10 5-8 8 1 2 10-2 12-3 12-7 26-20 35-30 9-12 16-27 18-47 2-22 0-37-8-56-22-55-79-62-130-43-12 4-23 10-32 17a77 77 0 0 0-12 11 73 73 0 0 0-19 38c-2 6-3 23 0 29 1 1 3 4 5 2l1-7a109 109 0 0 1 1-15c3-16 10-31 22-43l8-7c7-5 33-19 34-14zm-64 115c1-1 1-12-2-18-2-6-13-3-8 12 1 5 7 9 10 6zm43-26c5-2 10-3 12-7 4-5-1-9-7-9l-5 16zm83-12a15 15 0 0 0 5-2l3-4a10 10 0 0 0-8 6z" fill="#fff" fill-rule="evenodd"></path><path d="M9 397v169h167V397z" fill="#fff"></path><path d="M60 528a8 8 0 0 0-4-1 5 5 0 0 0-3 1 9 9 0 0 0-2 3v-4h-6v24h6v-7a43 43 0 0 1 1-8 5 5 0 0 1 1-3 3 3 0 0 1 2-1 6 6 0 0 1 3 1l2-5zm19 0l-7-1-7 1a8 8 0 0 0-3 6l6 1a4 4 0 0 1 1-3 4 4 0 0 1 3 0 6 6 0 0 1 3 0 3 3 0 0 1 1 3v1a41 41 0 0 1-6 1 20 20 0 0 0-5 2 6 6 0 0 0-3 2 7 7 0 0 0 2 9 8 8 0 0 0 5 2 10 10 0 0 0 4-1 13 13 0 0 0 4-3 2 2 0 0 0 0 1 19 19 0 0 0 1 2h6a10 10 0 0 1-1-3 32 32 0 0 1-1-5v-7-6a7 7 0 0 0-3-2zm-3 12v1a13 13 0 0 1 0 3 4 4 0 0 1-2 2 5 5 0 0 1-3 1 3 3 0 0 1-2-1 3 3 0 0 1-1-2 3 3 0 0 1 1-2 11 11 0 0 1 3-1 36 36 0 0 0 4-1zm-36-1a12 12 0 0 0-3-9 12 12 0 0 0-9-3 13 13 0 0 0-6 1 10 10 0 0 0-5 5 12 12 0 0 0-1 6 14 14 0 0 0 1 7 10 10 0 0 0 5 4 14 14 0 0 0 6 2 12 12 0 0 0 9-4 12 12 0 0 0 3-9zm-8-5a8 8 0 0 1 2 5 8 8 0 0 1-2 6 5 5 0 0 1-4 1 6 6 0 0 1-4-1 8 8 0 0 1-2-6 8 8 0 0 1 2-5 5 5 0 0 1 4-2 5 5 0 0 1 4 2zm57-7v24h6v-11a20 20 0 0 1 0-5 5 5 0 0 1 2-3 5 5 0 0 1 3 0 4 4 0 0 1 2 0 3 3 0 0 1 1 2 16 16 0 0 1 1 5v12h6v-15a19 19 0 0 0 0-4 7 7 0 0 0-1-3 6 6 0 0 0-3-1 9 9 0 0 0-4-1 9 9 0 0 0-8 4v-4zm29 3c-2 2-3 5-3 9a13 13 0 0 0 2 8 9 9 0 0 0 15 0v4a13 13 0 0 1 0 3 4 4 0 0 1-2 1 8 8 0 0 1-3 1 5 5 0 0 1-3-1 3 3 0 0 1-1-1l-7-1a6 6 0 0 0 2 6l9 2a21 21 0 0 0 5-1 9 9 0 0 0 4-2 8 8 0 0 0 2-3 22 22 0 0 0 0-6v-22h-6v4a9 9 0 0 0-7-4 9 9 0 0 0-7 3zm13 3a9 9 0 0 1 1 6 8 8 0 0 1-2 5 5 5 0 0 1-3 2 4 4 0 0 1-4-2l-1-5a8 8 0 0 1 1-6 5 5 0 0 1 4-1 5 5 0 0 1 4 1zm34 8c0-5-1-8-3-11a10 10 0 0 0-8-3 10 10 0 0 0-8 3c-2 2-3 5-3 9a13 13 0 0 0 2 9c2 2 5 4 9 4a11 11 0 0 0 7-2 10 10 0 0 0 3-6l-6-1a5 5 0 0 1-1 3 4 4 0 0 1-3 1 5 5 0 0 1-3-2 7 7 0 0 1-2-4zm-8-8a6 6 0 0 1 2 4h-10a6 6 0 0 1 1-4 4 4 0 0 1 4-1 4 4 0 0 1 3 1zm5-8a3 3 0 1 1 4 4 3 3 0 0 1-4-4zm4 5a4 4 0 1 0-5-5 4 4 0 0 0 5 5zm-1-4h1l1 2h1l-2-2a1 1 0 0 0 2-2l-2-1h-2v5h1v-4h2l-1 1h-1v1z" fill="#f27b64"></path><path d="M1319 467v7c12-7 23-8 30-8 19 0 26 6 28 8 4-3 14-8 30-8 32 0 32 13 32 18v30h-26v-27c0-5 0-11-14-11-7 0-14 2-16 5-2 2-3 5-3 10v23h-26v-26c0-8 0-12-13-12-7 0-14 1-17 4-2 2-3 4-3 11v23h-26v-47zm182 11h-19v18c0 7 0 9 8 9a55 55 0 0 0 10-1h1l3 9a132 132 0 0 1-22 2c-9 0-20-1-24-5-3-2-3-5-3-12v-20h-13v-10h13v-9l27-8v17h19zm-219 62a97 97 0 0 1-17-52c0-22 9-40 18-53h10c-8 17-13 32-13 53 0 24 9 43 12 51a2 2 0 0 1 1 1zm232-104c11 15 17 34 17 52 0 22-8 40-17 52h-10c7-17 13-31 13-52 0-25-9-43-13-52zM1690 450l6 2 2 7v46c0 6-1 9-9 9h-1v3h35v-3h-1c-8 0-9-3-9-9v-46c0-3 0-5 2-7s3-2 6-2h2v-2h-35v2zm112 43a40 40 0 0 1-1-4v-21c0-12 1-18-9-18v-2h24v2c-11 0-9 6-9 18v49h-4l-52-55a41 41 0 0 1 0 4v34c0 12 2 14 10 14v3h-26v-3c8 0 10-1 10-15v-38c0-7-2-11-10-11v-2h23zm87-47h-2v1c-1 2-1 4-3 4a8 8 0 0 1-2-1 49 49 0 0 0-19-4c-11 0-22 4-29 12a37 37 0 0 0-11 26c0 10 4 18 12 25s17 9 29 9c11 0 17-1 26-6l2-1v-18c0-8 1-9 7-9h1v-3h-30v2h1c7 1 8 2 8 8v17c-5 4-9 5-14 5a25 25 0 0 1-18-8c-5-5-8-13-8-23s3-18 8-24a23 23 0 0 1 17-7 30 30 0 0 1 17 7 20 20 0 0 1 7 11l1 1h2l-2-24z" fill="#fff"></path><path d="M2024 516l4-1a22 22 0 0 0 17-4 34 34 0 0 0 6-6 24 24 0 0 0 3-7 30 30 0 0 0 2-5 44 44 0 0 0-2-22l-1-4c-3-7-8-13-14-17a27 27 0 0 1-9-10l-3-2a5 5 0 0 1 0 2 5 5 0 0 1-3-2l1-1a6 6 0 0 0-2 0c-4-1-8 1-11 2v1l4 5h3a6 6 0 0 0 0-1h1l4 1a23 23 0 0 0-4 1l1 1a13 13 0 0 0-4 0 12 12 0 0 0 6 3h9c8 4 15 12 17 19l1 2a37 37 0 0 1 0 22 28 28 0 0 1-5 9 18 18 0 0 1-2 3 13 13 0 0 1-12 2v-1-1a45 45 0 0 0 1-11v-1a42 42 0 0 0-4-14 52 52 0 0 0-4-9 19 19 0 0 0-9-7l-6 1a4 4 0 0 0-2 4 14 14 0 0 1-6 2 15 15 0 0 1-2 1 9 9 0 0 1-1 0 16 16 0 0 1-8-4v-3a4 4 0 0 1-2-3v-1a9 9 0 0 1 2 1 14 14 0 0 0-2-4 24 24 0 0 1-2-1 4 4 0 0 1-2-3l3 1-3-9c0-2-3-3-4-4l-2-2-1-2 1 1c-1-4-2-7-5-10l-1 1a34 34 0 0 1-4 0 6 6 0 0 1 2-1 6 6 0 0 0-2-2 6 6 0 0 1-3 2c0-1-1-2 1-2a7 7 0 0 0-5 0l-1 2a19 19 0 0 1-2 2 20 20 0 0 1 1-4l-2 1a40 40 0 0 0-5-2h-1c2 1 1 3 1 4v-1c-1-1-2-1-2-3a17 17 0 0 0-4 2 3 3 0 0 1 2 1h-4l-1-1a8 8 0 0 0-2 2 15 15 0 0 0-4 5 3 3 0 0 1 2 0l-2 2a19 19 0 0 0-1 3 16 16 0 0 0-2 3 42 42 0 0 0-1 14l-2 1v5h1l2-2v3l-2 1v5a6 6 0 0 1 1-2h2a22 22 0 0 1-1 3 5 5 0 0 0-1 0 1 1 0 0 0 0 1 97 97 0 0 0 4 15l-3 7v1l-3 7a8 8 0 0 0-1-1 6 6 0 0 0-7 2 5 5 0 0 0-6 3 5 5 0 0 0-1 2 5 5 0 0 0-1 3 9 9 0 0 0 1 6h108z" fill="#f27b64"></path><path d="M2009 468v2l2-1a17 17 0 0 1 6 1l-1-3c-1 0-3 1-3-1h-2a5 5 0 0 0-2 2zm-66-19zm8 19l2-1v3a3 3 0 0 0 2 1l1-2v-2 1a8 8 0 0 0 1 2v1a5 5 0 0 0 3-1 10 10 0 0 1 0-2v-1l1 2a8 8 0 0 0 3-4l-2-1c-4-1-8-2-12 0a6 6 0 0 0 1 4zm-34 41a33 33 0 0 0 0 5 2 2 0 0 0 2 1v-1-5a10 10 0 0 1 2 1 4 4 0 0 0-2-4l-2 3zm5-2v8a9 9 0 0 0 2-1v-6a4 4 0 0 1 3 2 4 4 0 0 0 0-3l-1-1 1-3-3 1a12 12 0 0 0-2 3zm6 7v1c0-2 2-3 3-5l1-2 2 1v1l-1 4a22 22 0 0 0 3-4v-1c0-2-1-3-2-3l1-2h-2a6 6 0 0 0-4 2l-1 8zm5-13h2l5 3 2 5 1-3v-1l-3-1v-2l-2-2h-2v-1h-1a3 3 0 0 0-2 2zm2-5a1 1 0 0 0 0 1h3a17 17 0 0 0 5 3h2l-1 2 1 3 2-3c-1 0 0-2-2-2a1 1 0 0 1 0-1l-3-2-3-2a8 8 0 0 0-2-1l-2 2zm2-4h3l3 1a8 8 0 0 0 2 2l3 3a5 5 0 0 0 0-3l-2-1a1 1 0 0 1 0-1 14 14 0 0 0-2-1c-2-2-4-2-5-2l-2 2zm0-16v2l3-3a5 5 0 0 0-2 0l-1 1zm4 7l1-1a6 6 0 0 0 2-3 3 3 0 0 0-3 0 27 27 0 0 0 0 4zm0 3h5l1-4a3 3 0 0 0-1 0 9 9 0 0 1-5 4zm1-13a9 9 0 0 0 4 3l-2-5a8 8 0 0 0-2-1 10 10 0 0 0 0 3zm5 13a7 7 0 0 0 4 0l2-3h-1l-3 2a16 16 0 0 0-2 1zm0-15a13 13 0 0 0 2 4v-3zm7 8a16 16 0 0 0 0-3l-3-1c0 2 2 3 3 4zm-2 11a21 21 0 0 0 4-2l2-3h-3l-2 3-1 2zm2 3l2 2a3 3 0 0 0 2-1v-1a8 8 0 0 1-4 0zm3-16v3c2-1 2-3 2-5a7 7 0 0 1-2 2zm4 5a2 2 0 0 0 0 2c2 0 2 2 4 3l3-1-2-2-1-1-4-1zm1 11a5 5 0 0 0 3 1l-1-3a18 18 0 0 1-2 0 6 6 0 0 0 0 2zm3-14a16 16 0 0 1-1-4l-2 2c-1 1 2 2 3 2zm2-1h4l-2-2a18 18 0 0 0-1-4c-1 2-2 4-1 6zm2 4c2 2 4 4 7 3h1l-3-2-1-1h-1a18 18 0 0 1-3 0zm0 18a12 12 0 0 1 4-2l1 1 3-1a6 6 0 0 1 3 1l3 1v-1c-2-3-6-3-8-3a5 5 0 0 0-3 0 11 11 0 0 0-2 1 24 24 0 0 0-1 3zm1-27a4 4 0 0 0 4 2 4 4 0 0 1-2-2c0-2-2-2-3-3l1 3zm0 31l4-1c1-1 1 0 1 1l3 2c2 1 1 3 2 4l1-1v-2l-2-2c1-1-1-2-1-2v-1l2 1a3 3 0 0 1 1 2c2 0 3 2 3 4l1-3-1-1a4 4 0 0 0-2-3l-6-2-2 1-2 1-2 2zm1-9h1l2-1h5l3 2c0-2-1-3-3-4a16 16 0 0 1-2 0c-1-2-2 1-4 0a5 5 0 0 0-2 3z" fill="#f27b64"></path><path d="M1972 505l2 2c2 0 1 2 2 3v-1h1a4 4 0 0 0-1-2l-1-1a2 2 0 0 0-1-1h-2zm2-26l4 3a5 5 0 0 0 3 0 20 20 0 0 1-3-2l-1-2-3 1zm2-8c1 2 2 1 4 1l-3-2a6 6 0 0 0-1 1zm-40-20l1 4 1-6 1-2-2 1a7 7 0 0 0-1 3zm1-7l1-1v-2a9 9 0 0 0-1 1zM1972 448a2 2 0 0 1-2 1 7 7 0 0 0 1-6 8 8 0 0 0 1 0l1-1c2-1 1-3 2-5l-2-4-4-1c-1-1-3 0-4 1l-1 1a23 23 0 0 0 0 2 9 9 0 0 0-7 1 9 9 0 0 0-3-1h-2l-2-3-1-1-2-1-4 1a9 9 0 0 0-1 1 20 20 0 0 0-2 4 8 8 0 0 0 1 3 6 6 0 0 0 3 3 13 13 0 0 0 0 6 9 9 0 0 0 2 6l1 1a1 1 0 0 1 0 1 17 17 0 0 0-9 2v2a17 17 0 0 1 6-2 9 9 0 0 1 3 0v1l-8 5a8 8 0 0 0 1 2l2-2a23 23 0 0 1 6-3 8 8 0 0 0 2 1 15 15 0 0 1 4-1l2-1 1-2a3 3 0 0 1-2-3 3 3 0 0 1-1 0h-1v-2a8 8 0 0 1 5-1c2 1 3 0 4 2l-1 1h-1a4 4 0 0 1-2 3v1l1 1a19 19 0 0 1 6 3 13 13 0 0 0 1-2l9 6v-2a30 30 0 0 0-8-5 11 11 0 0 0 0-2 21 21 0 0 1 9 3v-2a21 21 0 0 0-9-2 1 1 0 0 1 0-1c1 0 3-2 3-4l2-3v-1a2 2 0 0 0 0-1z" fill="#f27b64"></path><path d="M1975 454l1-1 1-1-1-3-1 5zm4 7l3 2a9 9 0 0 0 0-2c-1-1-1-2-2-1l-1-2a16 16 0 0 0 0 3zm0 6l1 1a3 3 0 0 0 2 1h2l-2-2h-3zm2 10a8 8 0 0 0 5 1h1l-4-2h-3l1 1zm4 19v1c1 2 2 4 1 6l2 2a14 14 0 0 0 0-6l-3-3zm0-22a5 5 0 0 0 5 0 13 13 0 0 1-3-1l-2 1zm6 6a2 2 0 0 0 1 3 5 5 0 0 0 1-2 4 4 0 0 0-2-2 5 5 0 0 0 0 1zm0 10l1 2v1a6 6 0 0 1 1 4 37 37 0 0 0 1-4l-1-2v-3h-1l-1 2zm3-5l1 2 1-1-1-2v-1l-1-1v3zm1-6a6 6 0 0 1 3 3l2 6 1 4 1 1a49 49 0 0 0 1-5 7 7 0 0 0-2-1l1-1v-1c-1-1-1-3-3-3a2 2 0 0 1-1-2 5 5 0 0 0-3-1zm1 12l1 4 1 1v3a21 21 0 0 0 2-2v-1l-1-1c-1 0 0 0 0 0v-4l-1-3-2 3zm2-15l6 6a22 22 0 0 0 0-3 6 6 0 0 0-2-1l-4-2zm5 10a4 4 0 0 0 0 1 28 28 0 0 1 3 4c0-2 1-4-1-5h-2zm5 16l2-1a2 2 0 0 1 2 1v1a13 13 0 0 1 4 1 3 3 0 0 0-1-2l-2-1a2 2 0 0 0 0-1 3 3 0 0 1-1-1h-1l-3 3zm2-27a4 4 0 0 0 2-1h5a12 12 0 0 0-1-2 5 5 0 0 0-2-1l-4 2a2 2 0 0 0 0 2zm0 4v1a13 13 0 0 0 2-1l4-2a21 21 0 0 1 6 2 5 5 0 0 0-2-3 2 2 0 0 0-2 1l-2-2a11 11 0 0 1-4 1l-2 1a5 5 0 0 0 0 2zm1 5h4l-1-1 2-1h3l1 2h3a20 20 0 0 0-1-2l-2-1a2 2 0 0 1-2 0h-5l-2 1a10 10 0 0 0 0 2zm1 13v1h4v2l2 1a15 15 0 0 0 1-3 3 3 0 0 0-2-1c-1 0-1-2-3-2l-2 1a11 11 0 0 0 0 1zm0-10l1 1a6 6 0 0 1 5 0v1l3 1-1-1-1-3a9 9 0 0 0-5 0h-2v1zm1 7l2-2a4 4 0 0 1 3 2l1 1a22 22 0 0 1 0-3c0-1-3 0-4-2h-1l-1 3v1zm7 9c1 1 3 2 3 4a8 8 0 0 0 1-1l-1-1v-2a4 4 0 0 0-2-2l-1 2zm3-3l2 2a6 6 0 0 0 0-4l-1-1-1 3zm-6-59a5 5 0 0 0 2 0 2 2 0 0 1 1 0h3a10 10 0 0 0-3-2l-3 2zm8 2l3 2a4 4 0 0 1 2 1v-1a7 7 0 0 0-2-3 8 8 0 0 0-3 1z" fill="#f27b64"></path><path d="M1945 433h1c1 1 4 2 4 4a13 13 0 0 0-5 3l-3-2c0-2 1-4 3-5zm2 11h5a3 3 0 0 1 2 1l-1 7a3 3 0 0 0-2 2 17 17 0 0 0-3 1 2 2 0 0 1 1-2c1-1 3-1 3-3v-3h-1a3 3 0 0 1-2 0l-1-1a3 3 0 0 1-2-2zm2 14h3a2 2 0 0 1-1 1l-2 1v-2zm4-18h3a14 14 0 0 0-2 2h-3a4 4 0 0 1 2-2zm8-1c1 0 1 2 3 2v1a18 18 0 0 1-2 0l-2-2v-1a4 4 0 0 1 1 0zm-1 6a3 3 0 0 1 3-1h5v1l-1 1-1 1h-3a2 2 0 0 1-1-1v4l1 1c0 2 3 2 4 3a6 6 0 0 1-1 2 7 7 0 0 0-3-2l-2-2-1-7zm2 14h3v1l-3-1h1zm5-25l2-1a20 20 0 0 1 3 2 8 8 0 0 1 1 5l-3 1a9 9 0 0 0-5-4 4 4 0 0 1 2-3z" fill="#db812e"></path><path d="M2012 516h12l4-1a22 22 0 0 0 17-4 33 33 0 0 0 6-7 24 24 0 0 0 3-6 30 30 0 0 0 2-5 44 44 0 0 0-2-23l-1-3c-3-7-8-13-14-17a27 27 0 0 1-9-10l-3-2a6 6 0 0 1 1 2h-1a5 5 0 0 1-3-2l1-1a7 7 0 0 0-2 0c-4-1-7 1-11 2 2 1 2 4 4 6h3a6 6 0 0 0 0-1h1c1 0 3-1 4 1a23 23 0 0 0-4 1l1 1a13 13 0 0 0-4-1v1a13 13 0 0 0 6 3h9c8 4 15 12 18 19v1a37 37 0 0 1 0 23 28 28 0 0 1-5 9 18 18 0 0 1-2 2 13 13 0 0 1-12 3v-1-2a45 45 0 0 0 1-10v-1a42 42 0 0 0-4-15 51 51 0 0 0-4-8 19 19 0 0 0-9-7c-2 0-5-1-6 1a4 4 0 0 0-2 4 14 14 0 0 1-6 2h-2a9 9 0 0 1-1 0 16 16 0 0 1-8-3v-3a4 4 0 0 1-2-4 9 9 0 0 1 2 1 14 14 0 0 0-2-5l-2-1a4 4 0 0 1-2-2l3 1-3-9c0-2-3-3-4-4l-2-2-1-2a14 14 0 0 1 1 0c-1-3-2-7-5-9l-1 1a34 34 0 0 1-4 0 6 6 0 0 1 2-2 6 6 0 0 0-3-1 6 6 0 0 1-2 2v-1s-1-1 1-1a7 7 0 0 0-5 0l-1 2a19 19 0 0 1-2 2 20 20 0 0 1 1-4l-2 1a40 40 0 0 0-5-2h-1c2 1 1 3 1 4l-1-1-1-3a17 17 0 0 0-4 1v1a3 3 0 0 1 2 1l-4-1h-1a8 8 0 0 0-2 2 14 14 0 0 0-4 5 3 3 0 0 1 2 0l-2 2a20 20 0 0 0-1 3 16 16 0 0 0-2 3 42 42 0 0 0-1 14l-2 1v5h1l2-2v3l-2 1v5a6 6 0 0 1 1-2h2a22 22 0 0 1-1 3 4 4 0 0 0-1 0 2 2 0 0 0 0 1 97 97 0 0 0 4 15l-3 7-3 8a8 8 0 0 0-1-1 6 6 0 0 0-7 2 5 5 0 0 0-6 3 5 5 0 0 0-1 2 5 5 0 0 0-1 3 8 8 0 0 0 1 6h96z" fill="#f27b64"></path><path d="M2054 470l-1-3c-3-7-8-13-14-17a27 27 0 0 1-9-10l-3-2a6 6 0 0 1 1 2h-1a5 5 0 0 1-3-2l1-1a7 7 0 0 0-2 0c-4-1-7 1-11 2 2 1 2 4 4 6h3a6 6 0 0 0 0-1h1c1 0 3-1 4 1a23 23 0 0 0-4 1l1 1a13 13 0 0 0-4-1v1a13 13 0 0 0 6 3h9c8 4 15 12 18 19v1a37 37 0 0 1 0 23 28 28 0 0 1-5 9 18 18 0 0 1-2 2 13 13 0 0 1-12 3v-1-2a45 45 0 0 0 1-10v-1a42 42 0 0 0-4-15 51 51 0 0 0-4-8 19 19 0 0 0-9-7c-2 0-5-1-6 1a4 4 0 0 0-2 4 14 14 0 0 1-6 2h-2a9 9 0 0 1-1 0 16 16 0 0 1-8-3v-3a4 4 0 0 1-2-4 9 9 0 0 1 2 1 14 14 0 0 0-2-5l-2-1a4 4 0 0 1-2-2l3 1-3-9c0-2-3-3-4-4l-2-2-1-2a14 14 0 0 1 1 0c-1-3-2-7-5-9l-1 1a34 34 0 0 1-4 0 6 6 0 0 1 2-2 6 6 0 0 0-3-1 6 6 0 0 1-2 2v-1s-1-1 1-1a7 7 0 0 0-5 0l-1 2a19 19 0 0 1-2 2 20 20 0 0 1 1-4l-2 1a40 40 0 0 0-5-2h-1c2 1 1 3 1 4l-1-1-1-3a17 17 0 0 0-4 1v1a3 3 0 0 1 2 1l-4-1h-1a8 8 0 0 0-2 2 14 14 0 0 0-4 5 3 3 0 0 1 2 0l-2 2a20 20 0 0 0-1 3 16 16 0 0 0-2 3 42 42 0 0 0-1 14l-2 1v5h1l2-2v3l-2 1v5a6 6 0 0 1 1-2h2a22 22 0 0 1-1 3 4 4 0 0 0-1 0 2 2 0 0 0 0 1 97 97 0 0 0 4 15l-3 7-3 8a8 8 0 0 0-1-1 6 6 0 0 0-7 2 5 5 0 0 0-6 3 5 5 0 0 0-1 2 5 5 0 0 0-1 3 8 8 0 0 0 1 6h38a12 12 0 0 1-1-2l-1-5 3-4v-1l2-1h3c1 1 1-2 2-2 3 0 5 0 7 3h-6v1a11 11 0 0 0 0 1 6 6 0 0 1 2 2 4 4 0 0 1 3-2 6 6 0 0 1 3 1v5l4 1a6 6 0 0 1-2 1h-2-1a11 11 0 0 0-2 2h30a16 16 0 0 0-2-2v-5l3-4h5l2-2 4 1a2 2 0 0 1 0 1h-2v1h-1a1 1 0 0 1-1 0 7 7 0 0 0-1 2 5 5 0 0 1 1 1v2h-1l-1-1v6a16 16 0 0 0 3 0v-4l4-7c2-1 3 2 5 3l-1 1-2-1-2 1h1a5 5 0 0 1 1 3 3 3 0 0 1-1 2 21 21 0 0 1-2-3l-1 3-1 2h16l4-1a22 22 0 0 0 17-4 33 33 0 0 0 6-7 24 24 0 0 0 3-6 30 30 0 0 0 2-5 44 44 0 0 0-2-23z" fill="#fff"></path><path d="M1955 510c1 0 2 0 3-2a3 3 0 0 0-1 0h-1a10 10 0 0 1 0-2l3-1a23 23 0 0 0-1 5 16 16 0 0 0 2 6h-3l-2-6zm7-2l2 2v6h-2l-1-6a10 10 0 0 1 1-2zm4 2l2-2a2 2 0 0 1 1 1v3a34 34 0 0 1-1 4h-2v-6zm33-1l1 2a4 4 0 0 0 1-3l-1-1h3l-1 3v6h-2a13 13 0 0 1-2-6 5 5 0 0 1 1-1z" fill="#fff"></path><path d="M2009 468v1h2a17 17 0 0 1 6 0l-1-2c-1 0-3 1-3-1h-2a5 5 0 0 0-2 2zm-66-19h1zm8 19l2-1v3a3 3 0 0 0 2 0l1-1v-2h1a7 7 0 0 0 0 3v1a5 5 0 0 0 3-1 10 10 0 0 1 0-2v-1l2 2a8 8 0 0 0 2-5h-2c-3-2-8-2-12 0a6 6 0 0 0 1 4zm-34 41a33 33 0 0 0 0 5 2 2 0 0 0 2 1v-1-5a11 11 0 0 1 2 1 4 4 0 0 0-2-4l-2 3zm5-3v9a9 9 0 0 0 2-2v-5a4 4 0 0 1 3 2 4 4 0 0 0 0-3l-1-2 1-2h-3a12 12 0 0 0-2 3zm6 8l3-4 1-2 2 1-1 5a22 22 0 0 0 3-4v-1c0-2-1-3-2-3l1-2h-2a6 6 0 0 0-4 2l-1 8zm6-13h1l6 3 1 5 1-3v-2l-3-1v-1l-2-2-2-1h-1a3 3 0 0 0-1 2zm1-5a1 1 0 0 0 0 1l3-1a17 17 0 0 0 5 4h2l-1 2 1 2 2-2c-1-1 0-2-2-2a1 1 0 0 1 0-1l-3-3-3-1a8 8 0 0 0-2-1l-2 2zm2-4h3l3 1a8 8 0 0 0 2 2l3 3a5 5 0 0 0 0-3l-2-1a1 1 0 0 1 0-1 14 14 0 0 0-2-2l-5-1-2 2zm0-16v2l3-3a5 5 0 0 0-2 0l-1 1zm4 7l1-1a6 6 0 0 0 2-3 3 3 0 0 0-3 0 28 28 0 0 0 0 4zm0 3h5l1-4a3 3 0 0 0-1 0 9 9 0 0 1-5 4zm1-14a9 9 0 0 0 4 4l-2-5a8 8 0 0 0-2-2 10 10 0 0 0 0 3zm5 14a8 8 0 0 0 4 0l2-3h-1l-3 2a16 16 0 0 0-2 1zm0-16a13 13 0 0 0 2 5v-3l-2-2zm7 9a16 16 0 0 0 0-4h-3l3 4zm-2 11a21 21 0 0 0 4-2l2-3h-3l-2 3-1 2zm2 2l2 3a3 3 0 0 0 2-1v-2a7 7 0 0 1-4 0zm3-15v3c2-1 2-3 2-5a7 7 0 0 1-2 2zm4 5a2 2 0 0 0 0 1l4 4 3-1-2-2-1-1-4-1zm1 10a5 5 0 0 0 3 2l-1-3a18 18 0 0 1-2 0 6 6 0 0 0 0 1zm3-13a16 16 0 0 1-1-5l-2 3c-1 1 2 2 3 2zm2-1h4l-2-2a19 19 0 0 0-1-4c-1 2-2 4-1 6zm2 4c2 2 4 4 7 3h1l-3-2-1-2h-1a18 18 0 0 1-3 1zm0 18a12 12 0 0 1 4-2l1 1 3-1a6 6 0 0 1 3 1l3 1v-1c-2-3-6-3-8-3h-1a5 5 0 0 0-2 0 11 11 0 0 0-2 1 23 23 0 0 0-1 3zm1-27a4 4 0 0 0 4 2 4 4 0 0 1-2-3c0-2-2-2-3-3l1 4zm0 30h5c1 1 2 3 3 2 2 1 1 4 1 5l2-1v-2l-2-2c1-1-1-2-1-3l2 1a3 3 0 0 1 1 2c2 0 3 2 3 3l1-2-1-1a4 4 0 0 0-2-3l-6-2-2 1h-2l-2 3zm1-8h1l2-1h5l3 1c0-1-1-3-3-3a15 15 0 0 1-2 0c-1-2-2 1-4 0a5 5 0 0 0-2 3z" fill="#f27b64"></path><path d="M1972 505l2 2c2 0 1 2 2 3l1-1h-1 1a4 4 0 0 0-1-2l-1-1a2 2 0 0 0-1-1h-2zm2-26l4 3a5 5 0 0 0 3 0 21 21 0 0 1-3-3l-1-1-3 1zm2-8l4 1-3-2a6 6 0 0 0-1 1zm-40-20l1 4 1-7 1-1-2 1a7 7 0 0 0-1 3zm1-7l2-1v-2a9 9 0 0 0-2 1zM1972 448a2 2 0 0 1-2 1 7 7 0 0 0 1-6 8 8 0 0 0 1-1l1-1c2-1 1-3 2-4l-2-4-4-1c-1-1-3 0-4 1v1a21 21 0 0 0-1 2 9 9 0 0 0-7 1 9 9 0 0 0-3-1h-2l-2-3-1-1-2-1c-2-1-3 0-4 1a10 10 0 0 0-1 1 20 20 0 0 0-2 3 8 8 0 0 0 1 3 6 6 0 0 0 3 3 13 13 0 0 0 0 7 9 9 0 0 0 2 6l1 1a1 1 0 0 1 0 1 17 17 0 0 0-9 2v2a17 17 0 0 1 6-3 9 9 0 0 1 3 0v2l-8 5a8 8 0 0 0 1 2l2-2a23 23 0 0 1 6-4 8 8 0 0 0 2 2 14 14 0 0 1 4-2l2-1 1-2a3 3 0 0 1-2-2 3 3 0 0 1-1 0l-1-1v-1a8 8 0 0 1 5-1c2 0 3 0 4 2l-1 1h-1a4 4 0 0 1-2 2v2l1 1a19 19 0 0 1 6 3 12 12 0 0 0 1-2l9 6v-2a29 29 0 0 0-8-5 10 10 0 0 0 0-2 21 21 0 0 1 9 3v-2a21 21 0 0 0-9-2 1 1 0 0 1 0-1c1 0 3-2 3-4l2-3v-1a2 2 0 0 0 0-1z" fill="#f27b64"></path><path d="M1975 454l2-1v-1l-1-4-1 6zm4 6c1 1 2 3 3 2a10 10 0 0 0 0-1l-2-2-1-1a16 16 0 0 0 0 2zm1 7v1a4 4 0 0 0 2 0l2 1-2-2h-2zm1 10a8 8 0 0 0 5 1h1l-4-2h-3l1 1zm4 19c1 3 2 5 1 7l2 2a15 15 0 0 0 0-6l-3-3zm0-22a5 5 0 0 0 5 0 13 13 0 0 1-3-1l-2 1zm6 6a2 2 0 0 0 1 2 5 5 0 0 0 1-1 4 4 0 0 0-2-3 5 5 0 0 0 0 2zm0 10l1 2v1a6 6 0 0 1 1 4 37 37 0 0 0 1-4l-1-2v-3h-1l-1 2zm3-5l1 2 1-1-1-2v-2h-1v3zm1-6a6 6 0 0 1 3 3l3 6 1 4v1l1-5a6 6 0 0 0-2-1l1-1v-1c-1-1-1-3-3-3a2 2 0 0 1-1-2 5 5 0 0 0-3-1zm1 12l1 4 1 1v3a21 21 0 0 0 2-3v-1h-1v-1-3l-1-3c0 1-2 1-2 3zm2-15l6 5v-2a6 6 0 0 0-2-1c-1-1-2-3-4-2zm5 10a3 3 0 0 0 1 0 29 29 0 0 1 2 5c0-2 1-4-1-5h-2zm5 16l2-1a2 2 0 0 1 2 1v1a13 13 0 0 1 4 1 3 3 0 0 0-1-2l-2-1a2 2 0 0 0 0-1 3 3 0 0 1-1-1h-1l-2 3zm2-27a4 4 0 0 0 2-1l5-1a12 12 0 0 0-1-1 5 5 0 0 0-2-1c-2-1-3 1-4 2a2 2 0 0 0 0 2zm0 4a13 13 0 0 0 2-1l4-1a22 22 0 0 1 6 2 5 5 0 0 0-2-3 2 2 0 0 0-2 0c-1 1-1-1-2-1a11 11 0 0 1-4 1l-2 1a5 5 0 0 0 0 2zm1 5h4l-1-1 2-1h3l1 2h3a19 19 0 0 0-1-2l-2-1a2 2 0 0 1-1 0h-6l-2 1a10 10 0 0 0 0 2zm1 13v1h4v1l2 2a16 16 0 0 0 1-3 3 3 0 0 0-1-2l-4-1-2 1a11 11 0 0 0 0 1zm0-11l1 2a6 6 0 0 1 5 0v1l3 1-1-1-1-3a9 9 0 0 0-5 0h-2zm1 7l2-1a4 4 0 0 1 3 2l1 1a22 22 0 0 1 1-3c-1-1-4 0-4-2h-2l-1 3zm7 10c1 1 3 2 3 4a7 7 0 0 0 1-2h-1v-2a4 4 0 0 0-2-2l-1 2zm3-4l2 3a6 6 0 0 0 0-4l-1-1-1 2zm-6-59a5 5 0 0 0 2 1 2 2 0 0 1 1 0h3a10 10 0 0 0-3-2l-3 2zm8 2l3 2a4 4 0 0 1 2 2v-1a7 7 0 0 0-2-3 8 8 0 0 0-3 0z" fill="#f27b64"></path><path d="M1945 433h1c1 1 4 1 4 4a13 13 0 0 0-5 3c-1-1-3-1-3-3l3-4zm2 11h5a3 3 0 0 1 2 1l-1 7a3 3 0 0 0-2 2 16 16 0 0 0-2 1 2 2 0 0 1 0-2c1-1 3-1 3-3v-3h-1a3 3 0 0 1-2 0l-1-1a4 4 0 0 1-2-2zm2 14h3a2 2 0 0 1-1 1h-2v-1zm4-18l3-1a14 14 0 0 0-2 3h-3a4 4 0 0 1 2-2zm8-1c2 0 1 2 3 2v1a18 18 0 0 1-2 0l-2-2v-1a4 4 0 0 1 1 0zm0 6a3 3 0 0 1 2-1h5v1l-1 1-1 1h-3a2 2 0 0 1-1-1v4l2 1c0 2 2 2 3 3a6 6 0 0 1-1 2 7 7 0 0 0-3-2l-2-3-1-6h1zm2 13h2v2l-3-1 1-1zm4-24l2-1a19 19 0 0 1 3 2 8 8 0 0 1 1 5l-3 1a9 9 0 0 0-4-4 4 4 0 0 1 1-3zM2986 488c0-21 16-36 38-36 19 0 28 11 32 20l-18 9c-2-6-7-10-14-10-10 0-17 7-17 17s7 18 17 18c7 0 12-5 14-10l18 8c-4 9-13 21-32 21-22 0-38-15-38-37M3061 523v-70h43c14 0 20 10 20 18 0 9-5 15-12 16 8 1 14 8 14 17 0 10-7 19-21 19m-2-48a4 4 0 0 0-4-4h-17v8h17a4 4 0 0 0 4-4zm1 26c0-2-2-4-5-4h-17v9h17c3 0 5-2 5-5zM3127 513l11-15a33 33 0 0 0 23 9c4 0 7-1 7-4 0-7-39 0-39-28 0-12 10-23 29-23 12 0 22 3 30 10l-11 15a35 35 0 0 0-21-7c-4 0-5 1-5 3 0 7 39 1 39 27 0 16-12 25-30 25-15 0-26-5-33-12M3272 487c0 23-17 41-40 41s-39-18-39-41a40 40 0 0 1 39-40c23 0 40 18 40 40m-77 0a41 41 0 0 0 74 0 41 41 0 0 0-74 0zm59 0a21 21 0 1 1-22-21 21 21 0 0 1 22 21zM2361 404c14 0 26 59 26 131h20c0-78-20-142-46-142-14 0-27 19-35 49-8-30-21-49-36-49-25 0-45 64-45 142h20c0-73 11-131 25-131s26 54 26 121h20c0-67 11-121 25-121" fill="#fff"></path><g data-name="g7926"><g data-name="g7932"><path data-name="path7934" d="M2625 537c2 0 3 2 5 4l7 12 1 1 2-2a48 48 0 0 1 9-13l2-2h9l1 1v3l-2 1a2 2 0 0 0-1 1l-1 3v19c0 2 2 2 3 2l1 1v3l-1 1h-12-1v-4a1 1 0 0 1 1 0s2-1 2-3v-15-1l-2 1a66 66 0 0 0-6 15l-1 2a2 2 0 0 1-1 1 4 4 0 0 1-3 0 2 2 0 0 1-1-2v-1a41 41 0 0 0-8-16h-1v17a2 2 0 0 0 1 1l2 1v4a1 1 0 0 1-1 0h-12-1v-4a1 1 0 0 1 1-1 9 9 0 0 1 1 0s2 0 2-2v-21c0-2-2-2-3-2h-1v-4-1h9m177 1a1 1 0 0 1 1 1v5a1 1 0 0 0 1 1h2l1 1v4h-3l-1 1v15c0 3 3 2 4 2l1 1v3a1 1 0 0 1-1 1 11 11 0 0 1-2 0h-3c-4 0-6-3-6-7v-15-1h-2l-1-1v-3a1 1 0 0 1 1-1h1a1 1 0 0 0 1-1v-5a1 1 0 0 1 1-1h5" fill="#fff"></path></g><g data-name="g7936"><path data-name="path7938" d="M2714 550l-1 3h-4l-1-2a3 3 0 0 0-3-1 3 3 0 0 0-3 2v14a2 2 0 0 0 1 2 5 5 0 0 0 2 0l1 1v3a1 1 0 0 1-1 1h-12l-1-1v-3l1-1h1a2 2 0 0 0 2-2v-15c0-2-1-2-2-2h-1a1 1 0 0 1-1 0v-3l1-1h9a24 24 0 0 1 7 0c4 0 5 4 5 5m17-5a17 17 0 0 1 8 2s3-2 10-2c9 0 13 7 13 14l-1 9 3 1v3l-1 1h-8c-2 0-1-1-1-2l1-12c0-8-4-9-8-9a6 6 0 0 0-4 1v1a23 23 0 0 1 1 8l-1 6c0 2 3 2 3 3v3a1 1 0 0 1-1 1h-9v-2l1-6v-4c0-9-1-11-8-11l-3 1v16l1 1 2 1v3l-1 1h-11l-1-1v-3l1-1a3 3 0 0 0 2-1v-16a2 2 0 0 0-2-2 1 1 0 0 1-1 0v-3-1h11a14 14 0 0 1 4 0m-58-1c10 0 13 5 13 11v10l1 2a3 3 0 0 0 2 1 1 1 0 0 1 2 1v2l-2 1h-17c-3 0-11-1-11-9 0-9 10-10 13-10h5a4 4 0 0 0-2-3l-5-1-4 1a2 2 0 0 0-1 1l-1 1h-2a7 7 0 0 1-2 0v-3-3c1-1 3-2 11-2zm6 15h-7c-3 0-5 2-5 4 0 3 3 4 5 4h7l1-1v-6a1 1 0 0 0-1-1" fill="#fff"></path></g><g data-name="g7940"><path data-name="path7942" d="M2779 549c-5 0-8 3-8 9 0 4 1 10 8 10s7-7 7-10c1-1 0-9-7-9zm-15 9c0-11 9-13 15-13 8 0 14 4 14 13a15 15 0 0 1-15 15c-8 0-14-6-14-15m-49-31c41 0 74-34 74-75s-33-74-74-74-73 33-73 74 32 74 73 75" fill="#fff"></path></g><g data-name="g7944"><path data-name="path7946" d="M2759 467l-17-41-13 19-22-50-37 111 37-65 20 37 19-28 13 17" fill="#f27b64"></path></g></g><path d="M1652 105c-5 0-5 6-5 13h9c0-8 0-13-4-13zm-5 24c0 6 3 8 8 8 6 0 14-2 17-3v15a56 56 0 0 1-17 3c-13 0-29-2-29-29 0-25 13-30 26-30s23 6 23 29v7zm-51-21a13 13 0 0 0-5 2v27a14 14 0 0 0 4 1c3 0 5-3 5-16s-1-14-4-14zm2 44a34 34 0 0 1-7-1v21h-20V94h16l3 3a19 19 0 0 1 13-4c8 0 18 2 18 29 0 30-15 30-23 30zm-46-65a10 10 0 1 1 10-11 10 10 0 0 1-10 11zm-11 64V94h21v57zm-12-41a13 13 0 0 0-7 2v39h-20V94h16l3 5a9 9 0 0 1 9-6 14 14 0 0 1 7 1v17a30 30 0 0 0-8-1zm-39 27l7-1v14a78 78 0 0 1-14 2c-6 0-17 0-17-16v-29h-8V94h8l3-13 18-5v18h10l-2 13h-8v25c0 4 1 5 3 5zm-53-27c0 3 1 3 5 5l2 1c5 2 12 6 12 17 0 17-13 19-22 19a59 59 0 0 1-16-3v-14l13 2c3 0 5 0 5-3 0-2-1-3-5-5l-2-1c-5-2-12-6-12-17 0-15 12-18 22-18a41 41 0 0 1 15 2v15a54 54 0 0 0-13-3c-2 0-4 1-4 3zM413 194h-7l-2-10h-12l-3 10h-6l11-40h7zm-11-16l-4-15-4 15zm34 16h-6v-5a7 7 0 0 1-3 4 8 8 0 0 1-3 1c-3 0-5-1-6-4-2-2-3-6-3-11l2-11a8 8 0 0 1 7-4c2 0 4 1 6 4v-15h6v40zm-15-16a22 22 0 0 0 0 7l4 3a5 5 0 0 0 4-2 14 14 0 0 0 1-7l-1-7a4 4 0 0 0-4-3l-3 3-1 6zm19 0a20 20 0 0 1 2-7 13 13 0 0 1 4-5 10 10 0 0 1 5-2 10 10 0 0 1 8 4 20 20 0 0 1 4 11 18 18 0 0 1-4 11c-2 3-4 4-8 4a11 11 0 0 1-5-2 12 12 0 0 1-4-5 24 24 0 0 1-2-8v-1zm6 1l1 7a5 5 0 0 0 4 2 5 5 0 0 0 4-2 12 12 0 0 0 2-7 13 13 0 0 0-2-7 5 5 0 0 0-4-3 4 4 0 0 0-3 3 16 16 0 0 0-2 7zm21 15v-40h6v14c1-3 4-4 6-4s5 1 6 4 3 6 3 11-1 9-3 11c-2 3-4 4-6 4a8 8 0 0 1-4-1 6 6 0 0 1-2-4v5zm6-16a21 21 0 0 0 1 7c1 2 2 3 4 3a4 4 0 0 0 3-2l1-7-1-7a4 4 0 0 0-4-3l-3 3a14 14 0 0 0-1 6zm32 6l6 1c-1 3-2 6-4 7a11 11 0 0 1-6 2 9 9 0 0 1-8-5l-2-10c0-4 1-8 3-11a9 9 0 0 1 7-4 8 8 0 0 1 7 4c2 3 3 7 3 13h-14l1 6a4 4 0 0 0 3 1 3 3 0 0 0 3-1 14 14 0 0 0 1-3zm1-8a11 11 0 0 0-2-5 4 4 0 0 0-3-2 4 4 0 0 0-3 3 8 8 0 0 0-1 4zM382 18h48l-48 118zm81 0h49v116zm-16 45l27 71h-16l-12-23h-18zM24 187a33 33 0 0 1-2-5c0-4 1-6 3-6 2-1 3 0 3 2l1 14c0 9-5 19-15 19-9 0-14-6-14-15a42 42 0 0 1 2-15c1-3 2-4 5-5 2 0 2 2 1 5l-1 16c0 8 4 11 8 11 5 0 8-5 9-12v-9zm120 7c2 0 3 3 2 4s-2 3-5 4c-1-2-1-8 3-8zm-41 4l-2-4c-1 0-3 1-3 5a7 7 0 0 0 1 4 5 5 0 0 0 4-5zm-32-22a3 3 0 0 0-4-3c-2 0-4 2-3 5a3 3 0 0 0 3 3c2 0 4-2 4-5zm17 6c-1-3-1-4-3-4s-3 7-3 14l2 5c1 0 4-8 4-15zm69 11c-1 6-5 14-11 14l-4-2c0-1 9-2 9-9 0-3-2-6-6-6s-9 5-9 12c0 6 4 8 8 8 7 0 11-5 13-10 1 3 2 10 5 10l3-3c3-7 6-15 10-15 2 0 1 3 4 3a3 3 0 0 0 3-3c0-3-2-5-5-5-10 0-12 15-14 15s-1-12-3-12-3 2-3 3zm-84 13c2 0 5-1 7-4a39 39 0 0 1-3-10c0-10 4-20 8-20 3 0 6 3 6 7 1 13-3 18-6 23 1 2 4 5 7 5a4 4 0 0 0 2-1 10 10 0 0 1 0-3c0-8 5-14 9-14 3 0 5 5 5 7 0 4-3 6-7 9a5 5 0 0 0 3 1c6 0 9-7 11-14l3-3c3 0 4 17 8 17 2 0 3-4 3-6l-1-6c0-3 2-6 4-6s2 1 2 3c0 7-4 19-11 19-6 0-5-9-7-9s-5 10-16 10a7 7 0 0 1-5-3 12 12 0 0 1-7 2c-3 0-5-4-7-4s-4 4-10 4c-5 1-6-6-8-6-1 0-4 7-6 7-5 0-6-12-9-12s-13 12-16 11l-1-2a71 71 0 0 1 2-7l2-7a3 3 0 0 1 2-2l1 1 2 6c2 0 7-10 9-10 4 0 4 15 9 15 2 0 3-2 4-4 0-4 1-10 4-10 2 0 3 5 2 10 0 5 3 6 5 6M146 42a2 2 0 0 1-2-2l-2-3a10 10 0 0 0 3 0l7-1a1 1 0 0 1 1 1c0 3-4 5-7 5zm1 6c6 0 11-5 11-9a3 3 0 0 0-3-3 2 2 0 0 1 1 1c0 3-5 7-10 7a2 2 0 0 0-2 2c0 1 1 2 3 2zm0 2c1 6 9 13 11 13l2-13c0-3 0-5-2-6-2 5-9 7-11 6M22 85c2 0 1-11 4-11l1 1-1 9 1 1c1 0 4-12 6-12l1 1-3 12v1l5-9 2-2 1 2c0 3-3 10-5 14s-5 9-5 12c0 2 0 3 2 5-3 0-5 0-6-3-6 12 11 11 5 21-1-2-9-4-9-15 0-9 8-15 8-19a3 3 0 0 0-1-2l-3-3c-1 0-3 3-1 5l1 2c0 1-3 6-5 6s-3-5-3-12c0-6 2-12 3-12l1 1v5l1 2" fill="#fff"></path><path d="M36 102c2 0 4-2 4-6v-6l2-6a10 10 0 0 0 0 2l2 13-1 3-2-2v2a3 3 0 0 0 3 3 4 4 0 0 0 3-4l-3-16a12 12 0 0 1 1-5c0 11 9 19 9 24a2 2 0 0 1-2 2 2 2 0 0 1-2-2v-1a3 3 0 0 0-1 3 4 4 0 0 0 4 4 5 5 0 0 0 5-5c0-6-12-15-12-24a13 13 0 0 1 2-6c-7 4-10 11-10 16s0 7-2 7l-2-1-1 1a3 3 0 0 0 3 3M120 39l8-2a3 3 0 0 1 2 0c2 0 1 2 3 2l4-1c2 0 4 5 4 8 0 2-4 4-9 4-8 0-12-6-12-10a1 1 0 0 1 0-1zm12 7c3 0 5-1 5-2h-1a30 30 0 0 1-5-1l-5-1c0 2 2 4 6 4M37 122c-2 1-5 4-5 8 0 6 6 14 16 14 8 0 10-5 10-9 0-9-5-14-12-14a7 7 0 0 0-7 6 9 9 0 0 0 10 9 5 5 0 0 0 4-4c0-3-2-6-5-6a2 2 0 0 0-2 1c0 2 2 3 4 3a3 3 0 0 0 2 0c0 2-2 2-3 2a5 5 0 0 1-6-5c0-2 2-3 4-3 5 0 8 4 8 8s-2 7-6 7c-9 0-14-8-12-17M101 155a25 25 0 0 0 3 0l1 1c0 1-3 2-8 2-2 0-4-1-5-3a22 22 0 0 1-11 4c-11 0-14-5-18-7-2-1-7 1-12-5a15 15 0 0 0 2 0c5 0 8-3 8-7v-1a11 11 0 0 1 6 8l4 1c2 0 4-1 5-4 6-1 11-5 12-10a13 13 0 0 1 6 4 10 10 0 0 1 3 0 21 21 0 0 1 6 1l1-2c2 0 2 2 2 3l2 2a1 1 0 0 1-2 2 3 3 0 0 1 0-1c-1 1-1 9-6 9-4 0-7-3-8-7a2 2 0 0 0-2-1l-3 1a19 19 0 0 1-14 6h-4c0 1 2 2 6 2 10 0 12-5 14-5a1 1 0 0 1 1 0 11 11 0 0 0 11 7zm-5-11a2 2 0 1 0 3-2 2 2 0 0 0-3 2M140 116l-1 2a4 4 0 0 0 2 3 3 3 0 0 0 1 1c2 0 3-1 3-2 0-2-2-4-5-4zm-6 4c-1 0-7 8-11 8l-2-3 2-2c10-2 7-9 16-9 4 0 9 3 9 10s-10 16-12 16l-3-3 2-1c5-2 8-7 8-10a1 1 0 0 0-1-1c-1 0-5 10-9 10-3 0-7-3-7-5s9-6 9-9l-1-1M24 47a7 7 0 0 1-3 1 4 4 0 0 1-4-4 5 5 0 0 1 2-5 6 6 0 0 0 0 1 6 6 0 0 0 5 7zm12 10a11 11 0 0 0-2 7c0 3 2 5 4 5s4-2 4-4c0-4-3-7-6-8zm-18 3a1 1 0 0 0 1 1h1l5 1a11 11 0 0 0 4-1c4-2 6-7 6-8l-2-2-1-2h-2l-1-1a11 11 0 0 0-6 2c-5 3-4 8-5 10zm13-7l1 1-1 2c-2 0-3-3-3-4l1-2a1 1 0 0 1 1 1l1 2zm-5 7c-2 0-4-3-4-5l1-2h1a6 6 0 0 0 4 5v1l-2 1zm5-14a11 11 0 0 0 0-4c0-2-1-6-5-6a4 4 0 0 0-4 3c0 5 5 7 9 7zM16 68c0 4 1 6 4 6 1 0 4-1 7-4a25 25 0 0 1-6 1c-2 0-3-1-5-3zm2-5a5 5 0 0 0 0 1c0 2 1 4 3 4s3-1 5-3a12 12 0 0 1-2 0 7 7 0 0 1-6-2zm14-1c-2 0-4 2-4 5a3 3 0 0 0 3 3 4 4 0 0 0 2-1 6 6 0 0 1-2-4 8 8 0 0 1 1-3zm2-15a2 2 0 1 0 2-2 2 2 0 0 0-2 2zm3 5a2 2 0 1 0 2-2 2 2 0 0 0-2 2M123 79a2 2 0 0 1 5 0 2 2 0 1 1-5 0zm-19-17a2 2 0 1 0 2-2 2 2 0 0 0-2 2zm-2 8a3 3 0 1 0 3-3 3 3 0 0 0-3 3zm7-4a3 3 0 1 0 3-3 3 3 0 0 0-3 3zm0-7a2 2 0 1 0 2-2 2 2 0 0 0-2 2zm10-5a2 2 0 1 0 2-2 2 2 0 0 0-2 2zm-4 7a4 4 0 1 0 4-4 4 4 0 0 0-4 4zm-6 13a2 2 0 1 0 3-3 2 2 0 0 0-3 3zm8-5a2 2 0 1 0 2-2 2 2 0 0 0-2 2zm-2 8a4 4 0 1 0 3-4 4 4 0 0 0-3 4zm8-5a3 3 0 1 0 2-2 3 3 0 0 0-2 2zm-1-7a2 2 0 1 0 3-2 2 2 0 0 0-3 2M128 138a16 16 0 0 1-10 4 14 14 0 0 1-5-1l-2 1a13 13 0 0 0-3 8c0 2 2 4 5 4 10 0 18-6 18-12 0-3-2-4-3-4zm-3 0a2 2 0 0 0 1-2v-1c0-2-3-3-6-3-4 0-6 2-6 3v2c0 1 2 2 5 2a9 9 0 0 0 6-1zm0 5v1a5 5 0 0 1-2 4 11 11 0 0 1-6 2 13 13 0 0 0 0-4 12 12 0 0 0 0-1h1a13 13 0 0 0 7-2M103 75c1 5 7 2 7 8v3l1 3 1-2v-3a2 2 0 0 1 2-2l7 2c0 4-8 3-8 7 0 2 2 2 3 2l2-1v-2c2 0 8 4 8 6s-7 2-9 2l1-2-3-1-2 1 2 4c0 2 0 2-2 2s-4-1-4-3l2-4a1 1 0 0 0-1-1c-2 0-3 6-10 6a6 6 0 0 0 2-4v-4c0-1 0-2 2-2s3 3 4 3a2 2 0 0 0 2-2c0-4-9-4-9-9l2-7zm27 16c0 2 0 3 2 3 1 0 2-1 2-3v-5-1l3 3 3-2-1 3 3 2-5 1-3 3 3 1c4 0 6-2 7-2v1l-2 3 4 2-1 1-2-1-1 1-1 3c-1 0-2-6-7-6l-1 1c0 2 2 5 5 6l2 1c0 1-4 0-4 2l1 3v1l-3-3-3 1 2-7-2-4c-2 0-3 2-4 4l-1 6-1-3-4 1 2-3-4-2 3-1c3 0 7-2 7-5s-3-5-5-6l-3-2h2l2-1v-2-1l3 3 3-3v1l-1 6" fill="#fff"></path><path d="M105 107c3 0 3 1 3 2l-2 1h-3a4 4 0 0 0-3 2 2 2 0 0 1 2 1c0 4-9 1-9 9 0 5 4 9 11 9 4 0 6-1 6-2l-2-1 1-2-1-1-6 2c-3 0-6-2-6-4v-1h1l1-1 1-2c1 0 3 4 10 4l10-2a14 14 0 0 1-15 14c-10 0-16-8-16-16a16 16 0 0 1 16-16c3 0 5 0 5 2 0 1-4 0-4 2zm17 3a3 3 0 0 1 1 2l-1 4a3 3 0 0 0 3 4 4 4 0 0 0 4-4c0-3-3-6-7-6zm-18 3a2 2 0 0 1 0 2v3a2 2 0 0 0 3 2 3 3 0 0 0 2-2c0-3-2-5-5-5zm7-9c6 1 9 5 9 10 0 2-2 5-5 5a5 5 0 0 1-5-5l2-7a4 4 0 0 0-1-3zm3 7a1 1 0 0 0 1 2 2 2 0 0 0 2-2l-2-3-1 2v1M53 54c2 0 4-10 4-12l-1-1c-2 0-4 10-4 12l1 1zm13 3c2 0 3-5 3-9v-1c-1 0-3 5-3 8v2zm-9-5l3-2a14 14 0 0 0 0-2l-1-3c-2 0-2 5-2 6v1zm8-2l-1-1-2 2 1 3 2-4zm4-7c4 0 5 3 5 7l-1 4v-3l-1-1-2 4 1 3a2 2 0 0 0 2-1 5 5 0 0 1-5 5c-5 0-7-6-7-9-3 3-6 5-11 5a6 6 0 0 1-6-6l1-4c1 0 0 5 3 5l3-3a10 10 0 0 0 0-3l-1-2a4 4 0 0 0-3 1 8 8 0 0 1 8-6c5 0 7 4 7 8a11 11 0 0 1 0 2c2-3 4-6 7-6" fill="#fff"></path><path d="M59 58c-3 0-3 3-3 9-2-4-4-8-8-8-2 0-3 2-3 4a10 10 0 0 0 0 2 2 2 0 0 1 2-1c3 0 6 2 7 4a37 37 0 0 0-6-1 7 7 0 0 0-3 1 7 7 0 0 0-3 7 11 11 0 0 0 0 2c2-5 7-7 10-7a10 10 0 0 1 2 0c-2 2-2 5-2 6l-1 1 1 6a1 1 0 0 1 0 1l2 6a1 1 0 0 1 0 1l3 4 1 1 3-2a1 1 0 0 0-1-1l-2-4a1 1 0 0 1-1-1l-1-4-1-2 1-5a1 1 0 0 1-1-1l2-5c3 2 4 5 4 7a15 15 0 0 1 0 3c2-1 5-3 5-6 0-2-1-5-7-6a20 20 0 0 1 7-1c3 0 5 1 6 4a7 7 0 0 0 1-4c0-2-2-4-5-4-4 0-7 2-10 4l4-5a4 4 0 0 1 1 0c0-2-3-5-4-5M152 98c3 0 5 4 5 8a17 17 0 0 1-6 13c0-8-9-5-9-11a4 4 0 0 1 4-4 6 6 0 0 1 4 2 5 5 0 0 1-1-4 4 4 0 0 1 3-4M103 46a6 6 0 0 0 4 2l2-1 1 1a3 3 0 0 1-2 2 6 6 0 0 0 3 1c3 0 6-2 6-7a7 7 0 0 1 1 3c0 6-4 9-8 9a12 12 0 0 1-5-1l-1 2c-2-1-3-3-3-6a9 9 0 0 1 2-5zm8-4l-3-2a4 4 0 0 0-4 4 5 5 0 0 1-1-2 5 5 0 0 1 6-6c4 0 5 2 6 2h1l1 1c0 3-1 6-4 8a6 6 0 0 0-3-3 1 1 0 0 1 0-1 2 2 0 0 1 1-1M64 29c0 2 7 12 8 12 2 0 2-2 2-4a2 2 0 0 0 0-1c-1-1-8-7-10-7zm-41-5l-5 5-1-2a5 5 0 0 1 1-3 6 6 0 0 1 4-1l1 1zm51 3c0-3-9-9-9-12a1 1 0 0 1 0-1l8-4-2-1c-5 0-13 2-13 4s7 7 7 9l-1 1-8-3-1 2 3 9-7-5-1 2v2l-1 2-3-4-3 7c-2 0-1-8-2-8-2 0-4 5-5 5h-1l1-6-1-1-7 2 6-7c0-1-8-1-8-3s6-4 6-6L22 9l-5 1c0 2 7 2 7 4s-7 4-7 6 10 0 10 2-9 10-9 13h1c3 1 10-5 12-5l1 2v5l1 2 6-3c1 0 0 10 3 10 2 0 3-11 5-11s2 3 4 3c1 0 0-6 2-6s8 7 10 7l1-1-4-12 1-1 11 3 2-1zm-6-11l5 3c1 0 2-1 2-3l-3-1-4 1zm-13-6h-4c-3 0-3 3-6 3s-2-4-5-4l-5 1c0 1 3 1 3 3s-6 2-6 3l1 1 5-1 1 1c0 2-3 4-3 5l1 1c1 0 3-3 5-3 3 0 1 6 2 6s1-6 4-6c2 0 3 4 4 4a1 1 0 0 0 1-1l-2-5a1 1 0 0 1 2-1l4 1v-1c0-1-5-2-5-4s3-2 3-3M154 19c0 5-4 9-10 10h2c7 0 10-3 10-6a4 4 0 0 0-2-4zm-10 6c0-4-9-5-9-6l8-2c-4-5-10-5-10-6l8-1c4 0 7 0 7 3l-1 5a2 2 0 0 0 2 2c2 0 2-1 2-3v-4a4 4 0 0 1 4-4l5 1a4 4 0 0 0-2 3l1 9c0 9-8 12-18 12a58 58 0 0 1-9-1c0-1 4-1 4-5a27 27 0 0 0-1-3l1-1c1 0 2 4 5 4a3 3 0 0 0 3-3zm9-12a1 1 0 1 0 2-2 1 1 0 0 0-2 2M148 64c0-1-3-1-3-5l-1-1-1 3c-3 0-3-5-4-5l-1 1v2l-1 1c-1 0-2-4-4-4a1 1 0 0 0 0 1l1 2c0 2-4 1-4 2l1 1 4-1 2 1-2 2a1 1 0 0 0 0 1l6-3 2 1-2 3a1 1 0 0 0 0 1l4-3h3c1 0 0 0 0 0zm2 27a34 34 0 0 1 4-8c-2-1-7-3-7-6 0-4 5-7 6-7v1l-1 7c0 2 1 3 2 3s4-3 4-6a7 7 0 0 0-7-8c-1 0-4 2-11 2-12 0-14-11-14-17a8 8 0 0 0 5 2l7-1c6 0 9 5 13 11 3 1 9 4 9 11 0 6-7 9-8 16 2 0 4-5 6-5s2 1 2 3a12 12 0 0 1-4 8 4 4 0 0 0 0-1c0-1 0-3-2-3-3 0-4 3-5 5-2-6-4-11-8-14s-11-1-11-7l1-6a3 3 0 0 0 0-1c5 2 3 5 7 9 2 2 7 5 11 14a11 11 0 0 0 0-1c0-8-11-17-12-20 6 1 7 2 10 11l3 8" fill="#fff"></path><path d="M119 32c-3 0-6-2-6-3a1 1 0 0 1 1-1l5 2-1-4h6l-4-4 5-3-6-1 1-3-1-1-4 2-1-1c0-2 2-3 5-3 6 0 9 4 9 10 0 8-6 10-9 10zm-10-10l-3-3h3l2-3 1 3 3-1-1 3 3 1-3 1 1 3-3-1-2 2v-2l-1-1h-2-1l3-2zm-2 9l1 3 1 1 2-3c1 0 4 3 9 3 7 0 13-5 13-13s-6-13-14-13l-8 2-2-2-1 2-1 2c-1 0-6-4-6-2l3 6-3 2c0 2 4 2 4 3l-4 4 3 2c1 1-2 5-2 6l5-3M82 128a3 3 0 0 1-1 2 4 4 0 0 0-3-2c-6 0-3 8-10 8a29 29 0 0 1-3 0l-1 1c0 1 2 5 8 5s11-4 11-8a6 6 0 0 0 0-3 2 2 0 0 1 1 0l2 1a2 2 0 0 0 2-2 2 2 0 0 0-1-1 2 2 0 0 0 0-2 2 2 0 0 0-1-2 2 2 0 0 0-2 1l-1-2a1 1 0 0 0-2 2l1 2" fill="#fff"></path><path d="M51 118c5 1 7 3 8 6l2 6a10 10 0 0 0 6 3c2 0 4 0 4-2s-3-7-7-7h-1a3 3 0 0 1-2 0l-3-8a7 7 0 0 0-7-3l-4 2 4 3zm16 12l-4-2a1 1 0 0 1 1-2c2 0 4 2 4 3l-1 1" fill="#fff"></path><path d="M62 87c0-4 8-5 8-10a7 7 0 0 0-1-3c3 2 6 5 6 7 0 4-4 5-4 8s4 3 4 6-4 7-4 10a6 6 0 0 0 5 6 13 13 0 0 1-3 0c-6 0-11-4-11-10a9 9 0 0 1 3-7c1 2 3 2 4 2l1-1c0-2-8-4-8-8zm18 28c-2 1-3 1-3 3v2l1 1c2 0 5-3 5-6l-1-1-2 1zm-1-4c0-2-5-2-5-6a9 9 0 0 1 2-5c1 3 2 5 4 6 5 2 6 4 6 7 0 5-4 12-13 12-7 0-12-7-12-12l1-3 2 1c3 2 5 3 9 3s6-1 6-3M40 112a2 2 0 0 1-4 1 2 2 0 1 1 4-1zm-10 2a4 4 0 0 0 4 4 5 5 0 0 0 1-1 3 3 0 0 0 4 3 4 4 0 0 0 4-4 4 4 0 0 0-1-2h1a4 4 0 0 0 3-4 4 4 0 0 0-4-3 4 4 0 0 0-2 1 4 4 0 0 0-4-3 4 4 0 0 0-3 4 3 3 0 0 0 0 1 4 4 0 0 0-3 4" fill="#fff"></path><path data-name="path1697" d="M332 452h76v76h-76z" fill="#fff"></path><path data-name="path1699" d="M356 471h9v38h-9z" fill="#f27b64"></path><path data-name="path1701" d="M385 509h-10l-11-19 11-19h10l-11 19z" fill="#f27b64"></path><path data-name="path1704" d="M412 452h76v76h-76z" fill="#fff"></path><path data-name="path1706" d="M443 504l-2 5h-9l12-38h12l12 38h-10l-1-5zm7-22l-5 14h9z" fill="#f27b64"></path><path data-name="path1709" d="M492 452h76v76h-76z" fill="#fff"></path><path data-name="path1711" d="M534 509h-9v-17l-12-21h11l6 12 6-12h11l-13 21z" fill="#f27b64"></path><path data-name="path2266" d="M572 452h75v76h-75z" fill="#fff"></path><path data-name="path2268" d="M603 504l-2 5h-10l13-38h11l13 38h-10l-2-5zm6-22l-4 14h9z" fill="#f27b64"></path><path data-name="path2274" d="M651 452h76v76h-76z" fill="#fff"></path><path data-name="path2276" d="M675 471h9v38h-9z" fill="#f27b64"></path><path data-name="path2278" d="M704 509h-10l-11-19 11-19h10l-11 19z" fill="#f27b64"></path></svg>