<svg width="24" height="24" viewBox="0 0 24 24" fill="none" xmlns="http://www.w3.org/2000/svg"><path fill-rule="evenodd" clip-rule="evenodd" d="M22.39 6.13a12.1 12.1 0 0 0-4.37-4.48A11.52 11.52 0 0 0 12 0C9.82 0 7.81.55 5.98 1.65A12.27 12.27 0 0 0 0 12.3c0 2.68.76 5.1 2.29 7.23a11.78 11.78 0 0 0 5.91 4.45c.28.05.5.01.63-.12.13-.12.2-.28.2-.48a378 378 0 0 0-.01-2.29l-.36.07a6.45 6.45 0 0 1-1.95-.06 2.4 2.4 0 0 1-1.05-.48 2.03 2.03 0 0 1-.7-.98l-.15-.37c-.1-.25-.27-.52-.49-.82a1.9 1.9 0 0 0-.68-.6l-.1-.09a1.16 1.16 0 0 1-.35-.41c-.03-.08 0-.14.08-.19a1 1 0 0 1 .45-.07l.31.05c.2.04.47.17.77.38.31.22.56.5.76.83.24.44.53.78.87 1 .34.24.68.35 1.02.35.35 0 .64-.03.9-.08.24-.05.48-.13.7-.24.09-.72.35-1.27.76-1.65-.6-.06-1.13-.16-1.6-.29a6.3 6.3 0 0 1-1.47-.62 4.23 4.23 0 0 1-2.08-2.76c-.21-.7-.32-1.5-.32-2.4 0-1.3.42-2.4 1.24-3.3a4.4 4.4 0 0 1 .1-3.27c.3-.1.76-.02 1.35.22A9.29 9.29 0 0 1 9 6.36a10.84 10.84 0 0 1 6 0l.6-.39c.4-.25.88-.49 1.43-.7.55-.21.98-.27 1.27-.18.47 1.21.5 2.3.12 3.27.82.9 1.24 2 1.24 3.3 0 .9-.11 1.71-.32 2.41a5 5 0 0 1-.83 1.68 4.4 4.4 0 0 1-1.27 1.07c-.5.29-1 .5-1.47.62-.47.13-1 .23-1.6.29.54.48.81 1.24.81 2.27v3.38c0 .2.07.36.2.48.13.13.34.17.62.12 2.41-.83 4.39-2.3 5.91-4.45A12.16 12.16 0 0 0 24 12.3c0-2.23-.54-4.29-1.61-6.17Z" fill="currentColor"></path></svg>