<svg width="24" height="24" viewBox="0 0 24 24" fill="none" xmlns="http://www.w3.org/2000/svg"><path fill-rule="evenodd" clip-rule="evenodd" d="M9.52 15.59V8.82l6.49 3.4-6.49 3.37Zm14.24-7.94s-.23-1.66-.95-2.39c-.92-.96-1.94-.96-2.4-1.02C17.03 4 12 4 12 4h-.02s-5.03 0-8.4.24c-.46.06-1.48.06-2.4 1.02-.72.73-.95 2.4-.95 2.4S0 9.6 0 11.54v1.82c0 1.95.24 3.9.24 3.9s.23 1.66.95 2.39c.92.96 2.12.93 2.65 1.03 1.92.18 8.16.24 8.16.24s5.04 0 8.4-.25c.47-.06 1.5-.06 2.4-1.02.73-.73.96-2.39.96-2.39s.24-1.95.24-3.9v-1.82c0-1.95-.24-3.9-.24-3.9Z" fill="currentColor"></path></svg>