<svg width="20" height="20" style="margin-right: 3px;" viewBox="0 0 20 20" fill="none" xmlns="http://www.w3.org/2000/svg"><mask id="mask0_1013_25289" style="mask-type:alpha" maskUnits="userSpaceOnUse" x="1" y="2" width="18" height="16"><path d="M10.0003 2.70728C11.5579 2.70728 13.1711 2.76399 14.6175 2.87741C16.5088 3.04755 18.0664 4.52209 18.2333 6.50705L18.2528 6.84971L18.2731 7.28477C18.2931 7.76194 18.3132 8.84504 18.3334 10.5341L18.323 11.0818C18.3024 12.0388 18.2711 12.8963 18.2333 13.4928C18.0664 15.4777 16.5088 16.9523 14.6175 17.1224C13.3026 17.2255 11.8498 17.2818 10.4263 17.2911L9.99681 17.2924C8.43921 17.2924 6.82599 17.2357 5.37965 17.1222C3.48829 16.9521 1.93069 15.4776 1.76381 13.4926L1.74427 13.1499L1.7303 12.8589C1.70318 12.2527 1.68122 11.5071 1.66675 10.7092V9.29057L1.67794 8.74732C1.6985 7.8594 1.72832 7.06792 1.76381 6.50719C1.93069 4.52224 3.48829 3.0477 5.37965 2.87756C6.6945 2.77445 8.14728 2.7182 9.5708 2.70883L10.0003 2.70728ZM9.99856 5.48675L9.48931 5.48902L8.99708 5.49571C7.84948 5.51606 6.70952 5.56966 5.60217 5.6565C4.99025 5.71321 4.54523 6.16692 4.4896 6.73405L4.47078 6.93759C4.41961 7.54375 4.38638 8.39406 4.36702 9.3283V10.6715L4.37931 11.1838C4.40229 12.0196 4.43795 12.7568 4.4896 13.2658C4.54523 13.8329 4.99025 14.2866 5.60217 14.3433C6.70952 14.4302 7.84948 14.4838 8.99708 14.5041L9.48931 14.5108L10.0323 14.5131L10.5078 14.5109C11.8213 14.4985 13.1294 14.4427 14.395 14.3435C15.0069 14.2867 15.4519 13.833 15.5075 13.2659L15.5263 13.0624C15.589 12.3204 15.6247 11.2125 15.6411 10.0327L15.6301 9.32816L15.6178 8.81585C15.5948 7.98002 15.5592 7.24289 15.5075 6.7339C15.4519 6.16677 15.0069 5.71307 14.395 5.65635C13.2876 5.56951 12.1476 5.51591 11 5.49556L10.5078 5.48887L9.99856 5.48675Z" fill="white"></path></mask><g mask="url(#mask0_1013_25289)"><path fill-rule="evenodd" clip-rule="evenodd" d="M9.99878 -0.418213C12.771 -0.418213 15.5009 0.866628 17.3726 2.63316C17.4095 2.66804 17.3779 2.48288 17.6282 2.85224L9.99878 9.99983V-0.418213Z" fill="#ABABB1"></path><path fill-rule="evenodd" clip-rule="evenodd" d="M17.3726 2.6333C19.3383 4.59708 20.3561 7.29131 20.4243 9.86913C20.4254 9.91278 20.4263 10.4227 20.4269 10.4663L9.99878 9.99997L17.3726 2.6333Z" fill="#ABABB1"></path><path fill-rule="evenodd" clip-rule="evenodd" d="M20.4269 9.99976C20.4269 12.7395 19.3683 15.2323 17.6374 17.092C17.5841 17.1494 17.3533 17.3103 17.2987 17.3664L9.99878 9.99976H20.4269Z" fill="#ABABB1"></path><path fill-rule="evenodd" clip-rule="evenodd" d="M17.4751 17.2622C15.5126 19.2228 12.7223 20.34 10.1422 20.4147C10.0942 20.4161 9.35619 20.414 9.30835 20.4147L9.99844 9.99976L17.4751 17.2622Z" fill="#ABABB1"></path><path fill-rule="evenodd" clip-rule="evenodd" d="M9.99883 20.4178C7.2122 20.4178 4.5795 19.226 2.7059 17.4442C2.67878 17.4184 2.27875 16.9712 2.25195 16.9451L9.99883 9.99976V20.4178Z" fill="#ABABB1"></path><path fill-rule="evenodd" clip-rule="evenodd" d="M2.62474 17.3664C0.678072 15.4217 -0.339038 12.7605 -0.424697 10.2054C-0.426997 10.1368 -0.42374 9.57719 -0.424697 9.50873L9.99854 9.99978L2.62474 17.3664Z" fill="#ABABB1"></path><path fill-rule="evenodd" clip-rule="evenodd" d="M-0.429443 9.99986C-0.429443 7.23763 0.646602 4.72647 2.40276 2.86195C2.44217 2.82011 2.83582 2.53112 2.87591 2.48993L9.99868 9.99986H-0.429443Z" fill="#ABABB1"></path><path fill-rule="evenodd" clip-rule="evenodd" d="M2.52197 2.73737C4.45352 0.807696 7.18709 -0.304994 9.7328 -0.41082C9.82166 -0.414513 10.1005 -0.41698 10.1888 -0.418213L9.99864 9.99983L2.52197 2.73737Z" fill="#ABABB1"></path></g></svg>