<svg width="24" height="24" viewBox="0 0 24 24" fill="none" xmlns="http://www.w3.org/2000/svg"><path d="m19.2 5.5-.2-.2h-1.6L16 4c-.1-.2-.4 0-.4 0H15l-.4-.6c-.4-.9-1-1.3-1.9-1.3h-.2c-.3-.4-.8-.6-1.3-.6-1 0-2 .7-2.9 2.1-.6 1-1 2-1.1 3l-2 .6c-.7.2-.7.2-.7.7L2.9 20.3l13 2.2 5.6-1.4-2.3-15.6Zm-5-1.2-1 .4c0-.5 0-1.3-.2-1.9.8.1 1.2 1 1.3 1.5Zm-1.6.5-2.2.7c.2-.8.7-1.6 1.2-2 .1-.3.4-.5.7-.6.2.6.3 1.4.3 2Zm-1.4-2.6c.2 0 .4 0 .6.2-.2 0-.6.3-.8.6-.6.7-1.2 1.8-1.4 2.8L8 6.4c.4-1.8 1.7-4.2 3.3-4.2Z" fill="#95BF47"></path><path d="M19 5.4h-1.6L16 4H16v18.5l5.6-1.4-2.3-15.6-.2-.1Z" fill="#5E8E3E"></path><path d="m12.7 8.2-.6 2.4s-.7-.3-1.6-.2c-1.3 0-1.3.9-1.3 1 0 1.2 3 1.4 3.1 4 .1 2-1 3.3-2.8 3.5-2 0-3.2-1.2-3.2-1.2l.4-1.8s1.2.9 2 .8c.7 0 .9-.6.9-.9 0-1.4-2.4-1.3-2.6-3.7-.1-2 1.2-4 4-4.1 1.2 0 1.7.2 1.7.2Z" fill="#fff"></path></svg>