<svg width="24" height="24" viewBox="0 0 24 24" fill="none" xmlns="http://www.w3.org/2000/svg"><path fill-rule="evenodd" clip-rule="evenodd" d="M19.93 5.53c-.21.3-1.93 2.5-5.72 4.05a30.73 30.73 0 0 1 .9 2c3.41-.42 6.8.27 7.14.34a10.2 10.2 0 0 0-2.32-6.39ZM9.6 2.05a54.8 54.8 0 0 1 3.82 6c3.65-1.37 5.19-3.44 5.38-3.7a10.2 10.2 0 0 0-9.2-2.3ZM1.97 9.92c.46 0 4.68.02 9.47-1.25a65.4 65.4 0 0 0-3.8-5.93c-2.86 1.35-5 4-5.67 7.18Zm2.42 8.95c.23-.4 3.04-5.06 8.33-6.76l.4-.13c-.26-.58-.54-1.16-.83-1.74A37.83 37.83 0 0 1 1.76 11.7l-.01.32c0 2.63 1 5.03 2.64 6.85ZM16 21.45c-.15-.9-.74-4.03-2.18-7.77l-.07.02c-5.78 2.01-7.86 6.02-8.04 6.4A10.2 10.2 0 0 0 16 21.45Zm6.12-7.8c-.35-.12-3.17-.96-6.38-.45a44.2 44.2 0 0 1 1.99 7.31 10.27 10.27 0 0 0 4.39-6.87ZM12 24C5.38 24 0 18.62 0 12S5.38 0 12 0s12 5.38 12 12-5.38 12-12 12Z" fill="currentColor"></path></svg>