<svg width="15" height="15" xmlns="http://www.w3.org/2000/svg"><g fill="currentColor" fill-rule="evenodd"><path d="M7.57 14.51c1.12-.15 2.1-1.31 2.72-3.03-.9-.2-1.8-.3-2.72-.31v3.34zM9.36 14.24l.2-.06.16-.05.19-.07.16-.07.19-.07a7.87 7.87 0 0 0 1.6-.97l.15-.11.15-.14.13-.11.15-.15.13-.12.02-.02a8.81 8.81 0 0 0-1.8-.69 6.44 6.44 0 0 1-1.66 2.7l.06-.02.17-.05zM14.62 7.52h-3.13a13.4 13.4 0 0 1-.53 3.6c.69.18 1.35.44 1.98.78a7.23 7.23 0 0 0 1.68-4.38zM7.57 7h3.4a12.92 12.92 0 0 0-.52-3.46c-.95.21-1.91.33-2.88.34V7zM7.57.01v3.35c.91-.01 1.82-.12 2.72-.32C9.67 1.33 8.69.17 7.57.01zM7.57 10.65c.97 0 1.93.12 2.88.34.33-1.13.5-2.3.51-3.47H7.57v3.13zM12.94 2.62c-.63.34-1.3.6-1.98.79.34 1.17.51 2.38.53 3.6h3.13a7.23 7.23 0 0 0-1.68-4.39zM12.59 2.23l-.02-.02-.13-.13-.15-.14-.13-.12-.15-.13-.14-.11a5.59 5.59 0 0 0-.94-.63 7.23 7.23 0 0 0-.17-.1L10.6.77a5.78 5.78 0 0 0-.34-.16l-.19-.08a7.38 7.38 0 0 0-.72-.25L9.2.24 9.13.22a6.44 6.44 0 0 1 1.67 2.7 8.8 8.8 0 0 0 1.79-.69zM0 7h3.13c.01-1.21.2-2.42.53-3.6a9.1 9.1 0 0 1-1.98-.78A7.23 7.23 0 0 0 0 7zM7.05 14.51v-3.34c-.92 0-1.82.12-2.72.31.62 1.72 1.6 2.88 2.72 3.03zM7.05 7.52h-3.4c.02 1.18.2 2.34.52 3.47.94-.22 1.9-.33 2.88-.34V7.52zM7.05.01c-1.12.16-2.1 1.32-2.72 3.03.9.2 1.8.3 2.72.32V0zM7.05 3.88c-.97-.01-1.94-.13-2.88-.34-.33 1.12-.5 2.29-.51 3.46h3.39V3.88zM5.49.22l-.06.02-.17.04-.2.06L4.9.4l-.2.07-.15.06-.19.08a7.57 7.57 0 0 0-.82.42l-.17.1a6.85 6.85 0 0 0-.46.32l-.16.13-.14.1-.15.14-.13.12-.15.14-.13.13-.02.02c.57.3 1.17.52 1.8.68C4.13 1.9 4.71.97 5.48.22zM2.18 12.44l.15.14.13.12.15.14.14.1.16.13.14.1a7.4 7.4 0 0 0 .81.5l.16.09a6.08 6.08 0 0 0 .34.16l.19.07a7.38 7.38 0 0 0 .35.14l.17.05.2.06.16.05.06.01a6.44 6.44 0 0 1-1.67-2.7 8.8 8.8 0 0 0-1.79.7l.02.02.13.12zM1.68 11.9c.62-.34 1.3-.6 1.98-.78a13.4 13.4 0 0 1-.53-3.6H0c.06 1.6.65 3.15 1.68 4.38z"></path></g></svg>