<svg width="24" height="24" viewBox="0 0 24 24" fill="none" xmlns="http://www.w3.org/2000/svg"><path fill-rule="evenodd" clip-rule="evenodd" d="M5.4 12 12 5.5a2.4 2.4 0 0 1 3.4 0l.5.5 1-1-.5-.6a3.8 3.8 0 0 0-5.4 0L4.4 11l1 1Z" fill="currentColor"></path><path fill-rule="evenodd" clip-rule="evenodd" d="m14.3 7.6-1-1-6.7 6.6c-1 1-2.5 1-3.4 0-1-.9-1-2.4 0-3.4L8.9 4 8 3 2 8.8a4 4 0 0 0 0 5.5 3.8 3.8 0 0 0 5.5 0l6.7-6.7ZM20.9 8.8a3.8 3.8 0 0 0-5.5 0l-6.7 6.7 1 1 6.7-6.6a2.4 2.4 0 0 1 4.1 1.7c0 .6-.2 1.2-.7 1.7l-5.7 5.8 1 1 5.8-5.8a4 4 0 0 0 0-5.5Z" fill="currentColor"></path><path fill-rule="evenodd" clip-rule="evenodd" d="M17.6 11 11 17.9c-1 1-2.5 1-3.4 0l-.5-.5-1 1 .5.5a3.8 3.8 0 0 0 5.4 0l6.6-6.7-1-1Z" fill="currentColor"></path></svg>