<svg width="20" height="20" style="margin-right: 3px;" viewBox="0 0 20 20" fill="none" xmlns="http://www.w3.org/2000/svg"><mask id="mask0_1013_25291" style="mask-type:alpha" maskUnits="userSpaceOnUse" x="1" y="2" width="18" height="16"><path d="M10.0002 2.70734C11.5578 2.70734 13.171 2.76405 14.6173 2.87748C16.5087 3.04761 18.0663 4.52215 18.2332 6.50711L18.2527 6.84978L18.2729 7.28483C18.2929 7.762 18.3131 8.8451 18.3333 10.5341L18.3229 11.0818C18.3023 12.0388 18.2709 12.8964 18.2332 13.4928C18.0663 15.4778 16.5087 16.9523 14.6173 17.1225C13.3025 17.2256 11.8497 17.2818 10.4262 17.2912L9.99668 17.2924C8.43909 17.2924 6.82587 17.2357 5.37953 17.1223C3.48817 16.9522 1.93057 15.4776 1.76369 13.4927L1.74415 13.15L1.73017 12.859C1.70306 12.2528 1.6811 11.5071 1.66663 10.7093V9.29063L1.67782 8.74738C1.69838 7.85946 1.7282 7.06798 1.76369 6.50726C1.93057 4.5223 3.48817 3.04776 5.37953 2.87762C6.69438 2.77451 8.14716 2.71826 9.57067 2.70889L10.0002 2.70734ZM9.99844 5.48681L9.48918 5.48908L8.99696 5.49577C7.84936 5.51612 6.7094 5.56972 5.60204 5.65656C4.99013 5.71327 4.5451 6.16698 4.48948 6.73411L4.47066 6.93765C4.41949 7.54381 4.38626 8.39412 4.3669 9.32836V10.6716L4.37919 11.1839C4.40216 12.0197 4.43783 12.7568 4.48948 13.2658C4.5451 13.833 4.99013 14.2867 5.60204 14.3434C6.7094 14.4302 7.84936 14.4838 8.99696 14.5042L9.48918 14.5109L10.0322 14.5131L10.5077 14.511C11.8212 14.4986 13.1293 14.4428 14.3948 14.3435C15.0067 14.2868 15.4518 13.8331 15.5074 13.266L15.5262 13.0624C15.5889 12.3204 15.6246 11.2126 15.641 10.0328L15.63 9.32822L15.6177 8.81591C15.5947 7.98009 15.559 7.24296 15.5074 6.73396C15.4518 6.16683 15.0067 5.71313 14.3948 5.65641C13.2875 5.56957 12.1475 5.51597 10.9999 5.49562L10.5077 5.48893L9.99844 5.48681Z" fill="white"></path></mask><g mask="url(#mask0_1013_25291)"><path fill-rule="evenodd" clip-rule="evenodd" d="M9.9989 -0.418274C12.7711 -0.418274 15.501 0.866567 17.3727 2.6331C17.4097 2.66798 17.378 2.48281 17.6283 2.85218L9.9989 9.99977V-0.418274Z" fill="url(#paint0_linear_1013_25291)"></path><path fill-rule="evenodd" clip-rule="evenodd" d="M17.3727 2.6333C19.3384 4.59708 20.3563 7.29131 20.4244 9.86913C20.4255 9.91278 20.4264 10.4227 20.427 10.4663L9.9989 9.99997L17.3727 2.6333Z" fill="url(#paint1_linear_1013_25291)"></path><path fill-rule="evenodd" clip-rule="evenodd" d="M20.427 9.99976C20.427 12.7395 19.3684 15.2323 17.6376 17.092C17.5842 17.1494 17.3534 17.3103 17.2988 17.3664L9.9989 9.99976H20.427Z" fill="url(#paint2_linear_1013_25291)"></path><path fill-rule="evenodd" clip-rule="evenodd" d="M17.475 17.2622C15.5125 19.2228 12.7222 20.34 10.1421 20.4147C10.0941 20.4161 9.35607 20.414 9.30823 20.4147L9.99832 9.99976L17.475 17.2622Z" fill="url(#paint3_linear_1013_25291)"></path><path fill-rule="evenodd" clip-rule="evenodd" d="M9.99871 20.4178C7.21208 20.4178 4.57938 19.226 2.70577 17.4442C2.67866 17.4184 2.27863 16.9711 2.25183 16.9451L9.99871 9.99976V20.4178Z" fill="url(#paint4_linear_1013_25291)"></path><path fill-rule="evenodd" clip-rule="evenodd" d="M2.62462 17.3665C0.67795 15.4217 -0.33916 12.7605 -0.424819 10.2055C-0.42712 10.1368 -0.423862 9.57725 -0.424819 9.50879L9.99842 9.99984L2.62462 17.3665Z" fill="url(#paint5_linear_1013_25291)"></path><path fill-rule="evenodd" clip-rule="evenodd" d="M-0.429443 9.99986C-0.429443 7.23763 0.646602 4.72647 2.40276 2.86195C2.44217 2.82011 2.83582 2.53112 2.87591 2.48993L9.99868 9.99986H-0.429443Z" fill="url(#paint6_linear_1013_25291)"></path><path fill-rule="evenodd" clip-rule="evenodd" d="M2.52197 2.73731C4.45352 0.807635 7.18709 -0.305055 9.7328 -0.410881C9.82166 -0.414574 10.1005 -0.417042 10.1888 -0.418274L9.99864 9.99977L2.52197 2.73731Z" fill="url(#paint7_linear_1013_25291)"></path></g><defs><linearGradient id="paint0_linear_1013_25291" x1="10.1768" y1="4.43948" x2="14.3954" y2="4.65968" gradientUnits="userSpaceOnUse"><stop stop-color="#B349D9"></stop><stop offset="1" stop-color="#F53547"></stop></linearGradient><linearGradient id="paint1_linear_1013_25291" x1="15.2473" y1="4.39555" x2="15.5004" y2="9.61681" gradientUnits="userSpaceOnUse"><stop stop-color="#F13354"></stop><stop offset="1" stop-color="#FF4200"></stop></linearGradient><linearGradient id="paint2_linear_1013_25291" x1="17.1433" y1="10.3478" x2="16.2348" y2="14.6348" gradientUnits="userSpaceOnUse"><stop stop-color="#FF4200"></stop><stop offset="1" stop-color="#FFD000"></stop></linearGradient><linearGradient id="paint3_linear_1013_25291" x1="14.4531" y1="14.8892" x2="10.3729" y2="14.7626" gradientUnits="userSpaceOnUse"><stop stop-color="#FFD000"></stop><stop offset="1" stop-color="#72CE3A"></stop></linearGradient><linearGradient id="paint4_linear_1013_25291" x1="5.37061" y1="15.242" x2="9.9654" y2="15.3407" gradientUnits="userSpaceOnUse"><stop stop-color="#02B296"></stop><stop offset="1" stop-color="#72CE3A"></stop></linearGradient><linearGradient id="paint5_linear_1013_25291" x1="2.90118" y1="10.0392" x2="4.17087" y2="14.7806" gradientUnits="userSpaceOnUse"><stop stop-color="#2173DA"></stop><stop offset="1" stop-color="#02B195"></stop></linearGradient><linearGradient id="paint6_linear_1013_25291" x1="5.51388" y1="6.24489" x2="4.0193" y2="8.41625" gradientUnits="userSpaceOnUse"><stop stop-color="#3750FF"></stop><stop offset="1" stop-color="#2172D9"></stop></linearGradient><linearGradient id="paint7_linear_1013_25291" x1="9.60333" y1="4.13084" x2="5.15782" y2="3.48357" gradientUnits="userSpaceOnUse"><stop stop-color="#B44ADA"></stop><stop offset="1" stop-color="#364FFE"></stop></linearGradient></defs></svg>