<svg width="24" height="24" viewBox="0 0 24 24" fill="none" xmlns="http://www.w3.org/2000/svg"><path d="M17.7 8.4V6a2 2 0 0 0 1.1-1.7 2 2 0 0 0-2-2 2 2 0 0 0-1.9 2A2 2 0 0 0 16 6v2.5c-1 .2-1.8.6-2.6 1.2L6.6 4.2a2.2 2.2 0 0 0-2.7-2.6A2.2 2.2 0 0 0 2.8 5a2.2 2.2 0 0 0 2.7.5l6.8 5.2a5.4 5.4 0 0 0 0 6.2l-2 2h-.5a1.8 1.8 0 0 0-1.7 2 1.8 1.8 0 0 0 2.4 1.4 1.8 1.8 0 0 0 1-1.7v-.5l2-2a5.5 5.5 0 0 0 8.1-7 5.5 5.5 0 0 0-4-2.8h.1Zm-.8 8.2a2.8 2.8 0 0 1-2.8-3.3 2.8 2.8 0 0 1 5.1-1 2.8 2.8 0 0 1-2.3 4.3" fill="#FF7A59"></path></svg>