<svg width="76" height="76" viewBox="0 0 76 76" fill="none" xmlns="http://www.w3.org/2000/svg"><g filter="url(#filter0_ddd_1770_3180)"><g clip-path="url(#clip0_1770_3180)"><rect x="6" y="6" width="64" height="64" rx="8" fill="#333333"></rect><rect x="6" y="6" width="64" height="64" fill="white"></rect><g clip-path="url(#clip1_1770_3180)"><mask id="mask0_1770_3180" style="mask-type:alpha" maskUnits="userSpaceOnUse" x="20" y="22" width="37" height="32"><path d="M38.0931 22.1982C41.4514 22.1982 44.9297 22.3204 48.0482 22.565C52.1262 22.9318 55.4845 26.1111 55.8444 30.3909L55.8865 31.1297L55.9301 32.0677C55.9732 33.0966 56.0166 35.4319 56.0602 39.0736L56.0377 40.2545C55.9933 42.3179 55.9257 44.1669 55.8444 45.4529C55.4845 49.7327 52.1262 52.9119 48.0482 53.2788C45.2132 53.5011 42.0809 53.6224 39.0116 53.6426L38.0855 53.6453C34.7272 53.6453 31.2489 53.523 28.1304 53.2784C24.0524 52.9116 20.6941 49.7323 20.3343 45.4526L20.2922 44.7137L20.262 44.0862C20.2036 42.7792 20.1562 41.1715 20.125 39.4513V36.3925L20.1491 35.2212C20.1935 33.3067 20.2578 31.6002 20.3343 30.3912C20.6941 26.1114 24.0524 22.9321 28.1304 22.5653C30.9654 22.343 34.0977 22.2217 37.167 22.2015L38.0931 22.1982ZM38.0893 28.191L36.9913 28.1959L35.93 28.2103C33.4557 28.2542 30.9978 28.3698 28.6102 28.557C27.2908 28.6793 26.3313 29.6575 26.2114 30.8803L26.1708 31.3192C26.0605 32.6261 25.9888 34.4595 25.9471 36.4738V39.3699L25.9736 40.4745C26.0231 42.2766 26.1 43.866 26.2114 44.9634C26.3313 46.1862 27.2908 47.1645 28.6102 47.2867C30.9978 47.474 33.4557 47.5895 35.93 47.6334L36.9913 47.6479L38.162 47.6528L39.1873 47.6482C42.0193 47.6214 44.8398 47.501 47.5684 47.2871C48.8878 47.1648 49.8473 46.1865 49.9673 44.9637L50.0078 44.5249C50.1429 42.925 50.22 40.5364 50.2552 37.9926L50.2316 36.4735L50.2051 35.3689C50.1555 33.5668 50.0786 31.9775 49.9673 30.88C49.8473 29.6572 48.8878 28.679 47.5684 28.5567C45.1809 28.3695 42.723 28.2539 40.2486 28.21L39.1873 28.1956L38.0893 28.191Z" fill="white"></path></mask><g mask="url(#mask0_1770_3180)"><path fill-rule="evenodd" clip-rule="evenodd" d="M38.0889 15.4592C44.0661 15.4592 49.952 18.2295 53.9876 22.0383C54.0673 22.1135 53.9991 21.7143 54.5387 22.5107L38.0889 37.9217V15.4592Z" fill="url(#paint0_linear_1770_3180)"></path><path fill-rule="evenodd" clip-rule="evenodd" d="M53.9876 22.0384C58.2258 26.2725 60.4205 32.0816 60.5674 37.6397C60.5699 37.7338 60.5718 38.8333 60.5731 38.9273L38.0889 37.9218L53.9876 22.0384Z" fill="url(#paint1_linear_1770_3180)"></path><path fill-rule="evenodd" clip-rule="evenodd" d="M60.5731 37.9217C60.5731 43.8289 58.2906 49.2035 54.5587 53.2134C54.4436 53.337 53.9461 53.684 53.8283 53.805L38.0889 37.9217H60.5731Z" fill="url(#paint2_linear_1770_3180)"></path><path fill-rule="evenodd" clip-rule="evenodd" d="M54.21 53.5803C49.9787 57.8075 43.9624 60.2164 38.3994 60.3775C38.2959 60.3805 36.7047 60.376 36.6016 60.3775L38.0895 37.9217L54.21 53.5803Z" fill="url(#paint3_linear_1770_3180)"></path><path fill-rule="evenodd" clip-rule="evenodd" d="M38.0889 60.3841C32.0806 60.3841 26.4042 57.8144 22.3645 53.9726C22.306 53.917 21.4435 52.9528 21.3857 52.8966L38.0889 37.9217V60.3841Z" fill="url(#paint4_linear_1770_3180)"></path><path fill-rule="evenodd" clip-rule="evenodd" d="M22.191 53.8051C17.9938 49.6119 15.8008 43.8741 15.6161 38.3651C15.6111 38.2171 15.6181 37.0106 15.6161 36.863L38.0897 37.9217L22.191 53.8051Z" fill="url(#paint5_linear_1770_3180)"></path><path fill-rule="evenodd" clip-rule="evenodd" d="M15.6055 37.9218C15.6055 31.9661 17.9255 26.5518 21.712 22.5316C21.797 22.4414 22.6457 21.8183 22.7322 21.7295L38.0897 37.9218H15.6055Z" fill="url(#paint6_linear_1770_3180)"></path><path fill-rule="evenodd" clip-rule="evenodd" d="M21.9688 22.263C26.1334 18.1024 32.0273 15.7033 37.5161 15.4751C37.7077 15.4672 38.3088 15.4619 38.4993 15.4592L38.0893 37.9217L21.9688 22.263Z" fill="url(#paint7_linear_1770_3180)"></path></g></g></g></g><defs><filter id="filter0_ddd_1770_3180" x="0" y="0" width="76" height="76" filterUnits="userSpaceOnUse" color-interpolation-filters="sRGB"><feFlood flood-opacity="0" result="BackgroundImageFix"></feFlood><feColorMatrix in="SourceAlpha" type="matrix" values="0 0 0 0 0 0 0 0 0 0 0 0 0 0 0 0 0 0 127 0" result="hardAlpha"></feColorMatrix><feOffset dy="1"></feOffset><feGaussianBlur stdDeviation="1"></feGaussianBlur><feColorMatrix type="matrix" values="0 0 0 0 0 0 0 0 0 0 0 0 0 0 0 0 0 0 0.06 0"></feColorMatrix><feBlend mode="normal" in2="BackgroundImageFix" result="effect1_dropShadow_1770_3180"></feBlend><feColorMatrix in="SourceAlpha" type="matrix" values="0 0 0 0 0 0 0 0 0 0 0 0 0 0 0 0 0 0 127 0" result="hardAlpha"></feColorMatrix><feOffset dy="1"></feOffset><feGaussianBlur stdDeviation="1.5"></feGaussianBlur><feColorMatrix type="matrix" values="0 0 0 0 0 0 0 0 0 0 0 0 0 0 0 0 0 0 0.1 0"></feColorMatrix><feBlend mode="normal" in2="effect1_dropShadow_1770_3180" result="effect2_dropShadow_1770_3180"></feBlend><feColorMatrix in="SourceAlpha" type="matrix" values="0 0 0 0 0 0 0 0 0 0 0 0 0 0 0 0 0 0 127 0" result="hardAlpha"></feColorMatrix><feOffset></feOffset><feGaussianBlur stdDeviation="3"></feGaussianBlur><feColorMatrix type="matrix" values="0 0 0 0 0 0 0 0 0 0 0 0 0 0 0 0 0 0 0.03 0"></feColorMatrix><feBlend mode="normal" in2="effect2_dropShadow_1770_3180" result="effect3_dropShadow_1770_3180"></feBlend><feBlend mode="normal" in="SourceGraphic" in2="effect3_dropShadow_1770_3180" result="shape"></feBlend></filter><linearGradient id="paint0_linear_1770_3180" x1="38.4724" y1="25.9331" x2="47.5683" y2="26.4078" gradientUnits="userSpaceOnUse"><stop stop-color="#B349D9"></stop><stop offset="1" stop-color="#F53547"></stop></linearGradient><linearGradient id="paint1_linear_1770_3180" x1="49.4051" y1="25.838" x2="49.9508" y2="37.0956" gradientUnits="userSpaceOnUse"><stop stop-color="#F13354"></stop><stop offset="1" stop-color="#FF4200"></stop></linearGradient><linearGradient id="paint2_linear_1770_3180" x1="53.493" y1="38.672" x2="51.5341" y2="47.9153" gradientUnits="userSpaceOnUse"><stop stop-color="#FF4200"></stop><stop offset="1" stop-color="#FFD000"></stop></linearGradient><linearGradient id="paint3_linear_1770_3180" x1="47.6944" y1="48.4639" x2="38.8971" y2="48.191" gradientUnits="userSpaceOnUse"><stop stop-color="#FFD000"></stop><stop offset="1" stop-color="#72CE3A"></stop></linearGradient><linearGradient id="paint4_linear_1770_3180" x1="28.1102" y1="49.2244" x2="38.0171" y2="49.4373" gradientUnits="userSpaceOnUse"><stop stop-color="#02B296"></stop><stop offset="1" stop-color="#72CE3A"></stop></linearGradient><linearGradient id="paint5_linear_1770_3180" x1="22.7873" y1="38.0065" x2="25.5249" y2="48.2296" gradientUnits="userSpaceOnUse"><stop stop-color="#2173DA"></stop><stop offset="1" stop-color="#02B195"></stop></linearGradient><linearGradient id="paint6_linear_1770_3180" x1="28.4199" y1="29.8256" x2="25.1975" y2="34.5073" gradientUnits="userSpaceOnUse"><stop stop-color="#3750FF"></stop><stop offset="1" stop-color="#2172D9"></stop></linearGradient><linearGradient id="paint7_linear_1770_3180" x1="37.237" y1="25.2676" x2="27.6519" y2="23.872" gradientUnits="userSpaceOnUse"><stop stop-color="#B44ADA"></stop><stop offset="1" stop-color="#364FFE"></stop></linearGradient><clipPath id="clip0_1770_3180"><rect x="6" y="6" width="64" height="64" rx="8" fill="white"></rect></clipPath><clipPath id="clip1_1770_3180"><rect width="36.2667" height="36.2667" fill="white" transform="translate(19.8662 19.8667)"></rect></clipPath></defs></svg>