<svg xmlns="http://www.w3.org/2000/svg" width="16" height="16" viewBox="0 0 16 16">
            <path fill="#1B1B20" fill-rule="evenodd" d="M12.13 0c-1.02.05-2 .5-2.75 1.25L6.42 4.2c.47-.47 2.2-.15 2.61.27l1.8-1.8c.39-.39.88-.63 1.4-.65a1.63 1.63 0 0 1 1.26.48c.4.4.49.87.49 1.2 0 .52-.25 1.05-.67 1.47L10.2 8.3c-.78.78-1.98.85-2.67.16a1.02 1.02 0 0 0-1.44 0 1.02 1.02 0 0 0 0 1.44 3.66 3.66 0 0 0 2.61 1.07c1.04 0 2.1-.43 2.92-1.25l3.13-3.11c.8-.8 1.25-1.85 1.25-2.92a3.7 3.7 0 0 0-1.07-2.63A3.68 3.68 0 0 0 12.13 0zM7.3 5.02a4.2 4.2 0 0 0-2.94 1.25L1.25 9.38C.45 10.18 0 11.23 0 12.3c0 .99.38 1.93 1.07 2.63A3.68 3.68 0 0 0 3.87 16a4.18 4.18 0 0 0 2.75-1.25l2.96-2.96c-.47.47-2.2.15-2.61-.27l-1.8 1.8c-.39.39-.89.63-1.4.65a1.63 1.63 0 0 1-1.26-.48 1.65 1.65 0 0 1-.49-1.19c0-.53.25-1.06.67-1.48L5.8 7.7c.78-.78 1.98-.85 2.67-.16a1.02 1.02 0 0 0 1.44 0 1.02 1.02 0 0 0 0-1.44A3.66 3.66 0 0 0 7.3 5.02z"></path>
          </svg>