<svg width="24" height="24" viewBox="0 0 24 24" fill="none" xmlns="http://www.w3.org/2000/svg"><path d="M12 1.5a10.5 10.5 0 1 0 0 21 10.5 10.5 0 0 0 0-21Z" fill="#FDDD4C"></path><path d="M7.4 14.7c-.2-.3.3-.8.1-1.3a.8.8 0 0 0-1.3-.2c-.3.3-.3.7-.2.8v.1c.2 0 .2-.3.3-.4.1-.2.4-.3.7-.2.4.3 0 .7 0 1 0 .4.3.6.5.6l.4-.2c0-.2-.3.1-.5-.2ZM16 11.5h-.4l-.2-.5c-.1-.4-.1-.7.1-.7.3 0 .4.2.5.6v.6ZM13.4 11.8v.2l.4.2v.1h-.4c0 .2-.2.2-.4 0 0 0-.2.2-.3 0l.2-.1-.1-.5-.4.1H12l.2-.2.4-.2c0-.2 0-.4.2-.4s.3.1.4.4c.3 0 .5.2.6.4v.1l-.5-.1ZM15 12.7h.3c0-.1 0-.3-.2-.3h-.3c-.1.1 0 .3.1.3ZM15.6 12.2c0-.2.1-.3.3-.3l.2.3c0 .2-.1.3-.2.3-.2 0-.3-.1-.3-.3Z" fill="#000"></path><path fill-rule="evenodd" clip-rule="evenodd" d="M18.9 14.2c.2 0 .6.3.6 1 0 .6-.3 1.3-.3 1.5-1 2.3-3.4 3.6-6.2 3.5a6.4 6.4 0 0 1-5.8-3.6c-.6 0-1.2-.3-1.7-.7-.5-.4-.8-1-.9-1.5 0-.5 0-1 .2-1.3l-.6-.4c-2.5-2.1 5.4-10.8 8-8.6l.8.8c1.2-.5 4.4-1.5 4.4.8 0 .8-.4 1.6-1.2 2.4.9.8.6 2 .8 3l.3.2c.6.1 1 .3 1.2.6l.4.6c0 .2 0 .6-.3 1l.3.7ZM7 16h.3c.9-.2 1.1-1.2 1-2.2-.2-1-1-1.4-1.5-1.5h-.3c-1 .2-1.5 1-1.4 2 .1.9 1 1.6 2 1.7Zm-2-3.4c.3-.4.8-.7 1.3-.8.7-2 2-3.7 3.5-4.9 1.2-1 2.5-1.7 2.5-1.7s-.7-.8-1-.8c-1.2-.3-4 1.5-5.7 4C5 9.4 4 11.2 4.5 12l.6.5Zm10.3 3s-1 .4-2.7 0c0 .4.6.6 1 .7 2 .3 4-.8 4.4-1 0-.1 0 0 0 0-.6.7-2 1.4-3.8 1.4-.8 0-1.5-.2-1.8-.7-.5-.6 0-1.6.7-1.5a7 7 0 0 0 3.7-.5c1-.5 1.4-1 1.4-1.4-.1-.6-1-.7-1.5-.9-.3 0-.4-.1-.4-.5v-1c0-.5-.1-1-.5-1.3a.6.6 0 0 0-.5 0c-.2 0-.3 0-.5.2-.4.4-.8.4-1.3.4a7.9 7.9 0 0 1-.8 0h-.2c-.7 0-1.5.5-1.7 1.4-.1 1 .5 1.6.8 2l.2.2.1.2v.2a3.1 3.1 0 0 0-.7 3.3C12 18.3 14 19 16 18.4c1.4-.5 2.7-1.6 3-3 0-.4-.1-.6-.2-.7h-.3s0-.5-.3-1c-.6.5-1.3.9-1.9 1-.9.3-1.9.4-2.8.3-.4 0-.7-.1-.8.2 1.3.5 2.6.3 2.6.3Zm-3.7-8.9c-.6.4-1.4 1-2 1.7a6.4 6.4 0 0 1 5-1c-.4-.3-1-.4-1.5-.4 0-.2.2-.3.3-.3v-.1c-.6 0-2 .6-2 .6l.3-.5Z" fill="#000"></path></svg>