<svg xmlns="http://www.w3.org/2000/svg" width="24" height="24" fill="none" class="b--u-mr-1">
    <g clip-path="url(#clip0_2_4566)">
        <path stroke="#1B1B20" stroke-linecap="round" stroke-linejoin="round" stroke-width="2" d="m3 20 1.3-3.9a7.3 7.3 0 0 1-1.1-5.5c.3-2 1.5-3.7 3.2-4.9a9.8 9.8 0 0 1 11.8.5 7.4 7.4 0 0 1 1 10.5 9.2 9.2 0 0 1-5.2 3 10 10 0 0 1-6.3-.7L3 20"></path>
        <path fill="#1B1B20" fill-rule="evenodd" d="M12.3 11c.6 0 1.2.6 1.2 1.3a1.2 1.2 0 1 1-2.5 0c0-.7.6-1.3 1.3-1.3ZM7.7 11c.7 0 1.3.6 1.3 1.2a1.2 1.2 0 0 1-2.5 0c0-.6.6-1.2 1.2-1.2ZM16.8 11c.6 0 1.2.6 1.2 1.3a1.2 1.2 0 1 1-2.5 0c0-.7.6-1.3 1.3-1.3Z" clip-rule="evenodd"></path>
    </g>
    <defs>
        <clipPath id="clip0_2_4566">
            <path fill="#fff" d="M0 0h24v24H0z"></path>
        </clipPath>
    </defs>
</svg>