<svg xmlns="http://www.w3.org/2000/svg" fill="none" viewBox="0 0 48 48">
              <path fill="currentColor" d="M25.084 26.92h5.088c1.446 0 2.363-.8 2.363-2.086 0-1.213-.917-2.086-2.363-2.086h-5.088c-.17 0-.314.145-.314.291v3.59c.024.17.145.292.314.292Zm0 8.274h5.256c1.616 0 2.58-.825 2.58-2.28 0-1.262-.916-2.281-2.58-2.281h-5.256c-.17 0-.314.145-.314.29v3.955c.024.194.145.316.314.316Z"></path>
              <path fill="currentColor" d="M43.699 3.922 28.652 18.929h2.46c3.834 0 6.1 2.413 6.1 5.043 0 2.075-1.398 3.595-2.893 4.27-.241.097-.241.435.024.531 1.736.676 2.966 2.486 2.966 4.609 0 2.992-2.002 5.38-5.884 5.38H20.767c-.168 0-.313-.145-.313-.29V27.109L3.937 43.563c-.217.218-.072.604.241.604h39.713a.268.268 0 0 0 .266-.266V4.14c.072-.265-.266-.41-.458-.217Z"></path>
            </svg>