<svg width="72" height="72" fill="none" xmlns="http://www.w3.org/2000/svg"><g filter="url(#filter0_dd3)"><rect x="4" y="3" width="64" height="64" rx="10" fill="#fff"></rect></g><path d="M46.8 26.4V21h-.3c-4.4.2-8.1 3-10.4 5.4H36c-2.3-2.3-6-5.2-10.4-5.4h-.3v5.4H20v9.2l.2 6.3a7.4 7.4 0 007 6.8 125.1 125.1 0 0017.7 0 7.4 7.4 0 006.9-6.8l.2-6.3v-9.2h-5.2zm0 9.2c0 2 0 4.2-.2 5.9a2.2 2.2 0 01-2.1 2c-5.7.4-11.3.4-17 0a2.2 2.2 0 01-2-2 76 76 0 01-.3-6v-9.1c3.8.1 7.5 4.1 8.6 5.7l2.2 3 2.2-3c1.1-1.6 4.8-5.6 8.6-5.7v9.2z" fill="#9146FF"></path><defs><filter id="filter0_dd3" x="0" y="0" width="72" height="72" filterUnits="userSpaceOnUse" color-interpolation-filters="sRGB"><feFlood flood-opacity="0" result="BackgroundImageFix"></feFlood><feColorMatrix in="SourceAlpha" values="0 0 0 0 0 0 0 0 0 0 0 0 0 0 0 0 0 0 127 0"></feColorMatrix><feOffset dy="1"></feOffset><feGaussianBlur stdDeviation="2"></feGaussianBlur><feColorMatrix values="0 0 0 0 0 0 0 0 0 0 0 0 0 0 0 0 0 0 0.1 0"></feColorMatrix><feBlend in2="BackgroundImageFix" result="effect1_dropShadow"></feBlend><feColorMatrix in="SourceAlpha" values="0 0 0 0 0 0 0 0 0 0 0 0 0 0 0 0 0 0 127 0"></feColorMatrix><feOffset></feOffset><feGaussianBlur stdDeviation="1"></feGaussianBlur><feColorMatrix values="0 0 0 0 0 0 0 0 0 0 0 0 0 0 0 0 0 0 0.1 0"></feColorMatrix><feBlend in2="effect1_dropShadow" result="effect2_dropShadow"></feBlend><feBlend in="SourceGraphic" in2="effect2_dropShadow" result="shape"></feBlend></filter></defs></svg>