<svg width="15" height="18" xmlns="http://www.w3.org/2000/svg"><g fill="currentColor" fill-rule="evenodd"><path d="M1.08 5.58h-.05C.47 5.58 0 6.04 0 6.6v4.44c0 .57.47 1.02 1.03 1.02h.05c.56 0 1.03-.46 1.03-1.02V6.6c0-.56-.47-1.02-1.03-1.02zM2.6 12.76c0 .51.42.93.94.93h1.01v2.4c0 .57.47 1.02 1.03 1.02h.05c.57 0 1.03-.46 1.03-1.02v-2.4h1.41v2.4c0 .57.46 1.02 1.03 1.02h.04c.57 0 1.03-.46 1.03-1.02v-2.4h1.01c.52 0 .95-.42.95-.93V5.74H2.6v7.02z"></path><path d="M9.74 1.49l.8-1.23a.17.17 0 0 0-.05-.23.17.17 0 0 0-.24.05l-.83 1.27a5.46 5.46 0 0 0-4.11 0L4.48.08a.17.17 0 0 0-.24-.05.17.17 0 0 0-.05.23l.8 1.23a4.03 4.03 0 0 0-2.4 3.83h9.56l.01-.28c0-1.52-.98-2.85-2.42-3.55zm-4.6 2.2a.46.46 0 0 1-.45-.46c0-.25.2-.45.46-.45a.46.46 0 1 1 0 .91zm4.44 0a.46.46 0 0 1-.46-.46c0-.25.2-.45.46-.45a.46.46 0 1 1 0 .91z" fill-rule="nonzero"></path><path d="M13.7 5.58h-.05c-.56 0-1.03.46-1.03 1.02v4.44c0 .57.47 1.02 1.03 1.02h.05c.56 0 1.02-.46 1.02-1.02V6.6c0-.56-.46-1.02-1.03-1.02z"></path></g></svg>