<svg width="24" height="24" viewBox="0 0 24 24" fill="none" xmlns="http://www.w3.org/2000/svg"><path d="M0 2.7C0 1.2 1.2 0 2.7 0h18.6C22.8 0 24 1.2 24 2.7v18.6c0 1.5-1.2 2.7-2.7 2.7H2.7A2.7 2.7 0 010 21.3V2.7z" fill="#FFD000"></path><path d="M7 12.6v-.2h2.6v.2c0 .9.8 1.5 2.1 1.5s2.1-.5 2.1-1.4c0-.5-.2-.8-.9-1L9.7 11c-1.6-.4-2.5-1.2-2.5-2.8C7.2 6 9 4.7 11.6 4.7c2.6 0 4.3 1.3 4.3 3.5v.1h-2.5v-.2c0-.8-.5-1.4-1.8-1.4-1.1 0-1.8.5-1.8 1.2 0 .6.3.8.8 1l3.3.8c1.6.4 2.5 1.3 2.5 2.8 0 2-2 3.6-4.7 3.6S7 14.9 7 12.6z" fill="#1B1B20"></path><path fill-rule="evenodd" clip-rule="evenodd" d="M10.6 8.9c-.5-.2-.8-.4-.8-1 0-.7.7-1.2 1.8-1.2 1.3 0 1.8.6 1.8 1.4v.2h2.5v-.1V8c-.1-2-1.8-3.3-4.3-3.3C9 4.7 7.2 6 7.2 8.2c0 1.6.9 2.4 2.5 2.8l3.2.8c.7.1 1 .4 1 1 0 .8-1 1.3-2.2 1.3-1.3 0-2.1-.6-2.1-1.5v-.2H7V12.7c.1 2.3 2 3.4 4.7 3.4s4.7-1.5 4.7-3.6c0-1.5-.9-2.4-2.5-2.8l-3.3-.8zm1 6.9c2.7 0 4.4-1.5 4.4-3.3 0-.7-.2-1.2-.5-1.6-.3-.4-.9-.7-1.6-.9l-3.4-.8c-.3 0-.6-.2-.8-.4-.2-.2-.3-.5-.3-.9 0-.5.3-.9.7-1.1.4-.3.9-.4 1.5-.4.7 0 1.2.1 1.6.5.3.3.5.7.5 1h1.9c0-.8-.5-1.5-1-2-.8-.5-1.8-.9-3-.9s-2.2.3-3 .9c-.6.5-1 1.3-1 2.3 0 .7.1 1.3.5 1.6a3.2 3.2 0 001.7.9l3.2.7c.4.1.7.3.9.5.2.2.3.5.3.8 0 .6-.3 1-.8 1.3-.4.3-1 .4-1.7.4s-1.3-.1-1.7-.5c-.5-.2-.7-.7-.8-1.2H7.4c0 1 .5 1.7 1.1 2.2.8.6 1.9.8 3.2.9zM5.6 19.7l-.1-1-.1-1h.2A151.5 151.5 0 0111 17h7v2.1h-7a40.2 40.2 0 00-5.2.5h-.1z" fill="#1B1B20"></path></svg>