<svg xmlns="http://www.w3.org/2000/svg" viewBox="0 0 141.68 148.06"><path class="LPromo__ico--a" d="M12 58h129.7v90H12z"></path><path class="LPromo__ico--b" d="M2 49h129.6v90H2z"></path><path class="LPromo__ico--c" d="M42.7 86.5a10.8 10.8 0 0 1 0 15 9.7 9.7 0 0 1-7 3 10 10 0 0 1-7.2-3 11 11 0 0 1 0-15 9.8 9.8 0 0 1 7.2-3.2 9.5 9.5 0 0 1 7 3.2zm-.4 7.4a7.6 7.6 0 0 0-2-5.2 6.3 6.3 0 0 0-9.4 0 7.5 7.5 0 0 0-2 5 7.4 7.4 0 0 0 2 5.2 6.3 6.3 0 0 0 9.3 0 7.5 7.5 0 0 0 2-5zM59.8 96.5h-3.6v6.4a1.6 1.6 0 0 1-3.3 0V85.4a1.6 1.6 0 0 1 1.6-1.6h5.2a6.3 6.3 0 1 1 0 12.5zm-3.6-3.3h3.6a3 3 0 1 0 0-6h-3.6zM71.6 103V85.4a1.6 1.6 0 0 1 1.6-1.6h9.6a1.6 1.6 0 0 1 1.7 1.5 1.7 1.7 0 0 1-1.7 1.7h-8v5.4h7a1.6 1.6 0 0 1 0 3.2h-7v5.4h8a1.6 1.6 0 0 1 0 3.3h-9.5a1.6 1.6 0 0 1-1.7-1.6zM93.8 103a1.6 1.6 0 1 1-3.2 0V85.6a1.6 1.6 0 0 1 .6-1.3 1.6 1.6 0 0 1 2.3.3L103 98V85.7a1.6 1.6 0 0 1 1.5-1.6 1.6 1.6 0 0 1 1.7 1.6v17a1.6 1.6 0 0 1-1.7 1.7 1.6 1.6 0 0 1-1.2-.6.8.8 0 0 1 0-.3l-9.5-13z"></path><path class="LPromo__ico--b" d="M20.7 49l46-46.2 46.2 46"></path></svg>