<svg width="24" height="24" viewBox="0 0 24 24" fill="none" xmlns="http://www.w3.org/2000/svg"><path fill-rule="evenodd" clip-rule="evenodd" d="M20.45 20.45H16.9v-5.57c0-1.33-.02-3.04-1.85-3.04-1.85 0-2.13 1.45-2.13 2.95v5.66H9.35V9h3.41v1.56h.05a3.74 3.74 0 0 1 3.37-1.85c3.6 0 4.27 2.37 4.27 5.46v6.28ZM5.34 7.43a2.06 2.06 0 1 1 0-4.13 2.06 2.06 0 0 1 0 4.13ZM3.55 20.45h3.57V9H3.55v11.45ZM22.22 0H1.77C.79 0 0 .77 0 1.73v20.54C0 23.22.8 24 1.77 24h20.45c.98 0 1.78-.78 1.78-1.73V1.73C24 .77 23.2 0 22.22 0Z" fill="currentColor"></path></svg>