<svg width="16" height="16" fill="none" style="margin-right: 4px;" xmlns="http://www.w3.org/2000/svg"><path d="M11.8 6.3v1.5a.6.6 0 01-.3.6c-1.1.5-2.3.8-3.5.8-1.2 0-2.4-.3-3.5-.8a.6.6 0 01-.3-.6V6.3a.4.4 0 01.6-.4c1 .4 2 .7 3.2.7 1 0 2.2-.3 3.2-.7a.4.4 0 01.6.4z" fill="#C6C6CA"></path><path d="M15.9 10a3.8 3.8 0 01-3.8 3.4H10L6 16v-2.6l4-2.6H12a1.2 1.2 0 001.2-1v-6a1.1 1.1 0 00-1-1 69.4 69.4 0 00-8.5 0 1.1 1.1 0 00-1 1c-.2 2-.2 4-.1 6a1.2 1.2 0 001.2 1h2v2.6H4A3.8 3.8 0 010 9.9a48 48 0 010-6.4A3.7 3.7 0 013.6.2a62.5 62.5 0 018.8 0A3.7 3.7 0 0116 3.6a48 48 0 010 6.3z" fill="#C6C6CA"></path></svg>