<svg width="72" height="72" fill="none" xmlns="http://www.w3.org/2000/svg"><g filter="url(#filter0_dd2)"><rect x="4" y="3" width="64" height="64" rx="10" fill="#fff"></rect></g><path d="M36 33.3l8.1-7.1H36c-2.9 0-5.8.1-8.5.3a2.2 2.2 0 00-2 2c-.2 1.7-.3 3.8-.3 6v1c0 2.2 0 4.3.2 6a2.2 2.2 0 002.1 2c5.7.4 11.3.4 17 0a2.2 2.2 0 002-2c.2-1.6.3-3.6.3-5.6l5.2-4.5v4.5l-.2 6a7.4 7.4 0 01-7 6.8 118.6 118.6 0 01-17.7 0 7.4 7.4 0 01-6.9-6.8 83 83 0 01-.2-6.3v-1.2l.2-6.3a7.4 7.4 0 017-6.8C30 21.1 33 21 36 21h16v5.2L36 40.1l-7.5-6.5 4-3.4 3.5 3z" fill="#2FC774"></path><defs><filter id="filter0_dd2" x="0" y="0" width="72" height="72" filterUnits="userSpaceOnUse" color-interpolation-filters="sRGB"><feFlood flood-opacity="0" result="BackgroundImageFix"></feFlood><feColorMatrix in="SourceAlpha" values="0 0 0 0 0 0 0 0 0 0 0 0 0 0 0 0 0 0 127 0"></feColorMatrix><feOffset dy="1"></feOffset><feGaussianBlur stdDeviation="2"></feGaussianBlur><feColorMatrix values="0 0 0 0 0 0 0 0 0 0 0 0 0 0 0 0 0 0 0.1 0"></feColorMatrix><feBlend in2="BackgroundImageFix" result="effect1_dropShadow"></feBlend><feColorMatrix in="SourceAlpha" values="0 0 0 0 0 0 0 0 0 0 0 0 0 0 0 0 0 0 127 0"></feColorMatrix><feOffset></feOffset><feGaussianBlur stdDeviation="1"></feGaussianBlur><feColorMatrix values="0 0 0 0 0 0 0 0 0 0 0 0 0 0 0 0 0 0 0.1 0"></feColorMatrix><feBlend in2="effect1_dropShadow" result="effect2_dropShadow"></feBlend><feBlend in="SourceGraphic" in2="effect2_dropShadow" result="shape"></feBlend></filter></defs></svg>