<svg xmlns="http://www.w3.org/2000/svg" fill="none" viewBox="0 0 48 48">
              <g clip-path="url(#a)">
                <path fill="currentColor" d="M30.241 7.993s-.473.135-1.25.37a9.862 9.862 0 0 0-.608-1.484c-.879-1.686-2.197-2.597-3.751-2.597-.101 0-.203 0-.338.034-.034-.068-.101-.102-.135-.169-.676-.742-1.554-1.08-2.602-1.046-2.027.068-4.055 1.518-5.677 4.116-1.149 1.822-2.027 4.115-2.264 5.904-2.331.708-3.953 1.214-3.987 1.248-1.182.37-1.216.405-1.351 1.518C8.075 16.73 5 40.513 5 40.513l25.545 4.42V7.924c-.135.034-.236.034-.304.068Zm-5.913 1.821c-1.352.405-2.838.877-4.291 1.316.405-1.585 1.216-3.171 2.162-4.217.372-.37.879-.81 1.453-1.08.575 1.215.71 2.868.676 3.981ZM21.59 4.451c.473 0 .878.1 1.216.303-.54.27-1.081.709-1.588 1.215-1.284 1.383-2.264 3.542-2.67 5.6-1.216.37-2.432.742-3.547 1.08.71-3.206 3.446-8.097 6.589-8.198Zm-3.954 18.554c.136 2.159 5.846 2.631 6.184 7.725.236 4.015-2.129 6.747-5.542 6.95-4.122.27-6.386-2.16-6.386-2.16l.879-3.71s2.264 1.72 4.088 1.585c1.183-.067 1.622-1.046 1.588-1.72-.169-2.834-4.832-2.665-5.136-7.32-.27-3.88 2.298-7.827 7.975-8.198 2.196-.135 3.311.404 3.311.404l-1.284 4.858s-1.453-.675-3.176-.54c-2.5.17-2.534 1.755-2.5 2.126ZM25.68 9.41c0-1.012-.136-2.463-.609-3.678 1.555.304 2.298 2.025 2.636 3.07-.608.17-1.284.371-2.027.608Zm5.713 35.388 10.61-2.632s-4.562-30.8-4.596-31.002a.393.393 0 0 0-.371-.337c-.17 0-3.143-.068-3.143-.068s-1.824-1.754-2.5-2.429v36.468Z"></path>
              </g>
              <defs>
                <clipPath id="a">
                  <path fill="#fff" d="M5 3h37v42H5z"></path>
                </clipPath>
              </defs>
            </svg>