<svg width="24" height="24" viewBox="0 0 24 24" fill="none" xmlns="http://www.w3.org/2000/svg"><path fill-rule="evenodd" clip-rule="evenodd" d="M10.1999 14.4001h3.3998c2.3197 0 4.2-1.8803 4.2-4.2 0-2.31977-1.8803-4.20002-4.2-4.20002H7.79993V18.0001h2.39997v-3.6ZM0 12C0 5.37225 5.37225 0 12 0c6.627 0 12 5.37225 12 12 0 6.6278-5.373 12-12 12-6.62775 0-12-5.3722-12-12Zm10.2-3.60004h3.3998c.9946 0 1.8001.80625 1.8001 1.80004 0 .9937-.8055 1.7999-1.8001 1.7999H10.2V8.39996Z" fill="currentColor"></path></svg>