<svg width="19" height="16" viewBox="0 0 19 16" fill="none" xmlns="http://www.w3.org/2000/svg"><path d="M4.6 13.9l-1 1.5a1.2 1.2 0 01-2-1.1l.7-1.2c.2-.2.5-.5 1-.4 0 0 1.3 0 1.4.8l-.1.4zM17 10H13.9L11 4.8l-.2-.3c-.3-.4-.7.7-.7.7-.6 1.2 0 2.7.3 3l4 7.1a1.2 1.2 0 002-1.1l-1-1.8s0-.2.2-.2H17c.6 0 1.1-.5 1.1-1.1 0-.6-.5-1.2-1.1-1.2zm-5.3 1.6s.1.7-.5.7h-10a1.2 1.2 0 010-2.3h2.5c.5 0 .6-.2.6-.2l3.4-5.9v-.2l-1.2-2a1.2 1.2 0 012-1.1l.6.9.5-1a1.2 1.2 0 012 1.2L6.9 10l.1.1h2.8s1.6 0 1.9 1.6z" fill="currentColor"></path></svg>