<svg width="72" height="72" fill="none" xmlns="http://www.w3.org/2000/svg"><g filter="url(#filter0_dd1)"><rect x="4" y="3" width="64" height="64" rx="10" fill="#fff"></rect></g><path d="M43.6 31.6v3a1.1 1.1 0 01-.6 1.1c-2.2 1-4.6 1.6-7 1.7-2.4 0-4.8-.6-7-1.7a1.1 1.1 0 01-.6-1v-3.1a.9.9 0 011.2-.8c2 .9 4.2 1.3 6.4 1.4 2.2 0 4.3-.5 6.4-1.4a.9.9 0 011.2.8z" fill="#06F"></path><path d="M51.8 38.9a7.6 7.6 0 01-7.6 6.9H40L32 51v-5.2l8-5.2h4.2a2.4 2.4 0 002.4-2.1c.3-4 .2-8 0-12a2.2 2.2 0 00-2.1-2 138.9 138.9 0 00-17 0 2.2 2.2 0 00-2 2c-.4 4-.4 8-.1 12a2.4 2.4 0 002.4 2.1H32v5.2h-4.2a7.6 7.6 0 01-7.6-7 96 96 0 010-12.7 7.4 7.4 0 017-6.8 125 125 0 0117.6 0 7.4 7.4 0 017 6.8 96 96 0 010 12.8z" fill="#06F"></path><defs><filter id="filter0_dd1" x="0" y="0" width="72" height="72" filterUnits="userSpaceOnUse" color-interpolation-filters="sRGB"><feFlood flood-opacity="0" result="BackgroundImageFix"></feFlood><feColorMatrix in="SourceAlpha" values="0 0 0 0 0 0 0 0 0 0 0 0 0 0 0 0 0 0 127 0"></feColorMatrix><feOffset dy="1"></feOffset><feGaussianBlur stdDeviation="2"></feGaussianBlur><feColorMatrix values="0 0 0 0 0 0 0 0 0 0 0 0 0 0 0 0 0 0 0.1 0"></feColorMatrix><feBlend in2="BackgroundImageFix" result="effect1_dropShadow"></feBlend><feColorMatrix in="SourceAlpha" values="0 0 0 0 0 0 0 0 0 0 0 0 0 0 0 0 0 0 127 0"></feColorMatrix><feOffset></feOffset><feGaussianBlur stdDeviation="1"></feGaussianBlur><feColorMatrix values="0 0 0 0 0 0 0 0 0 0 0 0 0 0 0 0 0 0 0.1 0"></feColorMatrix><feBlend in2="effect1_dropShadow" result="effect2_dropShadow"></feBlend><feBlend in="SourceGraphic" in2="effect2_dropShadow" result="shape"></feBlend></filter></defs></svg>