<svg xmlns="http://www.w3.org/2000/svg" width="72" height="80" viewBox="0 0 72 80">
    <g fill="none" fill-rule="evenodd">
        <path fill="#18CC73" fill-rule="nonzero" d="M43.641 3.508c-.115 0-.229 0-.343.006l-.15.005c-.316.007-.642.028-1 .064-.661.069-1.321.189-1.959.3h-.02l-.194.035c-.4.074-.763.148-1.094.229a7.888 7.888 0 0 0-1.864.666c-.432.246-.84.53-1.219.851l-.131.1c-.249.2-.5.417-.777.672l-.572.531a3.84 3.84 0 0 0-.219.227l-.1.112-.207.218c-.245.257-.432.455-.61.669l-.46.553-.459.552a6.766 6.766 0 0 0-.267.351l-.128.178-.532.72c-.173.234-.339.484-.485.705l-.051.075-.127.191-.035.053c-.205.3-.374.555-.531.823l-.4.675-.4.675c-.148.25-.284.508-.416.758l-.036.067c-.056.107-.111.213-.169.319-.156.286-.3.58-.439.864l-.016.033-.06.122-.068.14c-.14.284-.288.585-.42.882l-.164.368-.01.022c-.164.367-.335.747-.492 1.132A22.023 22.023 0 0 0 26 21.593l-.134.536-.015.06-.013.052-.007.028c-.141.567-.287 1.154-.4 1.737l-.277 1.462c-.02.109-.032.223-.044.333l-.006.05a220.784 220.784 0 0 1-.127 1.091c-.033.3-.071.646-.093 1l-.042.739-.043.738c-.027.467-.03.979-.009 1.61.02.62.075 1.239.166 1.853l.029.187.187 1.232c.043.277.105.552.17.833l.008.036.072.325c.023.108.055.213.089.321l.02.068.021.069.051.178c.039.136.078.272.12.406l.1.327.1.326c.078.24.168.478.271.709a4.9 4.9 0 0 0 .415.733l.069.107c.375.56.781 1.098 1.217 1.612l.119.146c.215.264.427.509.648.751.414.426.861.818 1.338 1.173.608.48 1.266.912 1.9 1.33l.117.076c.344.227.7.443 1.025.645.121.073.246.14.374.2l.043.022.151.076c.129.067.26.127.392.186l.058.027.115.053c.69.302 1.4.557 2.125.764l.034.01.307.1c.715.225 1.478.429 2.331.625.83.206 1.676.342 2.529.407.741.044 1.525.073 2.543.095H44.493c.294.009.589.017.884.017a9.108 9.108 0 0 0 1.435-.099c.118-.015.264-.033.4-.061l.746-.149c.139-.028.28-.068.417-.107.067-.019.133-.038.2-.055.43-.11.851-.247 1.263-.411.861-.352 1.69-.776 2.48-1.269a25.121 25.121 0 0 0 2.182-1.562 33.14 33.14 0 0 0 1.857-1.553c.518-.471 1.01-.976 1.486-1.464l.024-.025.217-.223a47.419 47.419 0 0 0 1.7-1.829c.509-.608.985-1.242 1.427-1.9l.124-.178c.2-.289.405-.611.638-1.014.2-.34.423-.735.6-1.127.175-.377.344-.787.519-1.252.055-.157.103-.317.141-.479l.012-.049.022-.084.018-.068c.042-.164.084-.33.121-.5.05-.214.1-.428.142-.644.031-.153.053-.309.074-.47v-.026l.021-.154c.058-.422.1-.871.14-1.334l.053-.761c.042-.57.082-1.14.12-1.711a60.45 60.45 0 0 0 .1-2.414V23.853c.015-.734.032-1.493 0-2.239a25.47 25.47 0 0 0-.23-2.627 12.016 12.016 0 0 0-.575-2.3 12.637 12.637 0 0 0-.981-1.973l-.088-.154c-.064-.112-.125-.226-.186-.34-.046-.085-.091-.17-.138-.254-.057-.1-.119-.2-.18-.307l-.023-.04-.011-.018c-.062-.1-.122-.2-.18-.3-.146-.255-.259-.45-.389-.646a3.493 3.493 0 0 0-.8-.845c-.1-.209-.2-.409-.314-.613A11.832 11.832 0 0 0 58.563 9.3l-.078-.093c-.267-.32-.548-.617-.812-.9a11.319 11.319 0 0 0-1.342-1.247c-.68-.486-1.4-.914-2.151-1.28l-.616-.32a12.757 12.757 0 0 0-.823-.4 11.867 11.867 0 0 0-1.687-.558L51 4.492a8.158 8.158 0 0 0-.628-.151l-.646-.119-.268-.051h-.028a18.545 18.545 0 0 0-.869-.15l-.486-.068-.262-.038-.072-.015c-.591-.085-1.261-.182-1.9-.251l-.716-.078c-.123-.013-.249-.017-.372-.021h-.032c-.066 0-.131 0-.2-.006l-.662-.029c-.073 0-.146-.005-.22-.005l.002-.002z"/>
        <path fill="#161616" fill-rule="nonzero" d="M38.567 14.933c-.3.015-.593.049-.888.078-.588.057-1.172.164-1.756.255-.562.088-1.127.162-1.685.273-.289.057-.573.147-.855.231a8.575 8.575 0 0 0-.771.27c-.584.237-1.157.498-1.719.782-.491.249-.968.517-1.443.8-.226.132-.45.27-.682.393l-.752.4a13.425 13.425 0 0 0-2.682 1.98c-.392.364-.79.727-1.159 1.115s-.754.777-1.114 1.182c-.187.211-.367.427-.549.642-.2.233-.392.471-.573.716-.339.461-.647.947-.966 1.423-.149.224-.3.445-.448.674-.14.224-.266.455-.381.692a19.044 19.044 0 0 0-1.013 2.486c-.093.289-.165.582-.243.875-.071.268-.126.54-.19.81-.073.312-.14.623-.205.937-.052.256-.095.516-.132.775-.046.313-.091.626-.133.94a22.042 22.042 0 0 0-.187 1.884c-.018.416-.007.833.034 1.248.015.169.041.336.061.5.018.142.031.286.057.426l.107.591c.048.26.118.517.179.774.034.14.088.278.13.415.037.117.069.236.113.351.117.31.228.623.358.927.175.408.338.824.537 1.221.106.206.223.407.351.6.077.12.151.242.233.358.176.249.351.5.535.741.365.483.73.971 1.141 1.417.411.446.8.862 1.206 1.285.375.391.765.764 1.162 1.133.417.39.834.787 1.279 1.146.425.342.857.678 1.266 1.04.4.355.772.741 1.11 1.156.059.073.118.145.176.219.211.277.411.564.6.859.206.326.4.661.588.995.188.334.362.65.542.975.18.325.353.663.509 1.006.144.337.264.684.358 1.038.047.193.095.385.14.577.045.192.068.365.1.549l.1.755c.033.271.062.543.086.815.024.279.038.559.06.838.044.55.1 1.1.158 1.648.06.593.16 1.182.3 1.761.069.274.161.543.252.811a6.679 6.679 0 0 0 .551 1.201c.077.128.167.249.254.37.17.245.355.479.555.7.092.1.184.193.28.286.133.124.276.237.427.338.234.162.482.304.74.423.28.126.576.215.879.265.312.054.626.108.94.146.52.067 1.045.096 1.569.088.284-.008.57-.037.852-.07a7.07 7.07 0 0 0 .933-.177c.127-.032.253-.069.379-.1s.272-.059.407-.09c.256-.057.508-.129.755-.215a9.17 9.17 0 0 0 1.506-.677c.207-.12.414-.236.612-.371.1-.07.208-.142.317-.2.132-.077.266-.148.394-.231.2-.13.39-.275.566-.435.158-.15.301-.316.428-.493.115-.151.218-.309.322-.467.09-.133.173-.27.249-.412.167-.314.308-.64.424-.976l.016-.048.048-.062a.542.542 0 0 0 .074-.272l.041-.33.005-.016a2.664 2.664 0 0 0 .079-.647l.049-.383c.063-.439.125-.876.153-1.318.028-.421.065-.839.116-1.258.073-.511.16-1.017.273-1.521.117-.521.266-1.033.418-1.545.152-.512.31-1.027.489-1.533s.358-1.036.558-1.546l.186-.465c.168-.381.352-.753.552-1.119.196-.377.415-.742.656-1.092.315-.392.667-.756 1.017-1.115l.6-.6a17.91 17.91 0 0 0 1.091-1.191c.2-.237.379-.482.566-.724.333-.432.659-.869.977-1.311.315-.436.6-.893.853-1.367a24.809 24.809 0 0 0 1.055-2.359c.097-.242.18-.489.248-.74.071-.271.138-.543.194-.818.056-.275.107-.577.156-.866.18-1.139.273-2.29.277-3.442.007-.583.023-1.168 0-1.751a36.046 36.046 0 0 0-.1-1.741 26.02 26.02 0 0 0-.11-.963 21.676 21.676 0 0 0-.147-.913c-.1-.537-.2-1.073-.323-1.6a25.127 25.127 0 0 0-.434-1.59c-.087-.286-.2-.564-.309-.842a30.768 30.768 0 0 0-.358-.865 16.844 16.844 0 0 0-.73-1.521 9.977 9.977 0 0 0-1.026-1.436c-.18-.22-.375-.43-.567-.64-.192-.21-.381-.408-.583-.6-.202-.192-.418-.372-.629-.557a18.7 18.7 0 0 0-1.403-1.13c-.226-.165-.466-.309-.7-.456-.477-.292-.96-.572-1.446-.848a19.999 19.999 0 0 0-1.558-.827c-.535-.246-1.1-.463-1.662-.665a16.14 16.14 0 0 0-1.58-.493c-.541-.135-1.087-.249-1.632-.363-.293-.061-.59-.1-.886-.145a6.762 6.762 0 0 0-.875-.072H39.4c-.279 0-.557.006-.835.02l.002-.005zm1.908 1.095a27.54 27.54 0 0 1 2.651.54c.409.1.809.234 1.207.375s.82.293 1.224.457c.363.156.72.321 1.071.5.37.193.73.406 1.094.612.364.206.741.435 1.111.655.37.22.708.439 1.046.683.272.216.54.434.8.661.26.227.533.448.784.687a15.8 15.8 0 0 1 1.478 1.636c.133.176.26.356.382.541.127.2.242.407.345.62.236.47.453.947.662 1.43.166.413.342.824.471 1.25.135.447.248.9.365 1.353.117.453.207.927.3 1.392.084.43.157.864.219 1.3.138 1.147.202 2.301.19 3.456 0 .559 0 1.118-.027 1.676-.027.558-.069 1.11-.13 1.664-.089.628-.2 1.252-.34 1.87a10.884 10.884 0 0 1-.594 1.749c-.176.407-.359.809-.555 1.207-.186.373-.394.735-.622 1.084-.459.71-.973 1.378-1.487 2.049-.323.415-.669.813-1.03 1.194-.189.2-.386.387-.582.577-.196.19-.385.389-.576.584-.191.195-.369.4-.553.6-.204.216-.388.45-.549.7-.3.487-.576.991-.834 1.5-.246.508-.463 1.03-.651 1.561a42.766 42.766 0 0 0-.548 1.555 27.679 27.679 0 0 0-.862 3.079 17.406 17.406 0 0 0-.272 1.773c-.029.291-.061.58-.076.871-.013.243-.035.484-.065.725-.065.472-.125.944-.185 1.416-.016.06-.032.121-.044.182-.024.126-.052.25-.085.375a4 4 0 0 1-.193.526l.014-.032a6.775 6.775 0 0 1-.753 1.256c-.13.152-.272.293-.426.421a6.969 6.969 0 0 1-.579.357c-.198.113-.355.243-.54.352-.2.119-.4.241-.613.348-.169.086-.34.167-.513.245-.193.077-.385.157-.582.224-.238.08-.48.146-.725.2-.25.056-.5.115-.745.182-.228.062-.459.11-.692.144a8.089 8.089 0 0 1-1.225.06 14.597 14.597 0 0 1-1.086-.076c-.239-.036-.477-.079-.716-.115a3.363 3.363 0 0 1-.67-.179 5.478 5.478 0 0 1-.75-.441 4.985 4.985 0 0 1-.65-.673l.085.11a7.632 7.632 0 0 1-.487-.674 5.821 5.821 0 0 1-.343-.672 11.83 11.83 0 0 1-.361-1.082 8.833 8.833 0 0 1-.224-1.117c-.081-.643-.135-1.289-.193-1.935-.031-.342-.048-.686-.077-1.028-.035-.391-.085-.78-.138-1.17l.019.144c-.043-.32-.083-.639-.13-.958-.039-.263-.107-.52-.171-.778a6.719 6.719 0 0 0-.237-.783 11.59 11.59 0 0 0-.344-.822c-.234-.491-.5-.967-.763-1.441-.273-.49-.553-.977-.852-1.451a10.87 10.87 0 0 0-.5-.713 11.771 11.771 0 0 0-.561-.7c-.35-.398-.726-.77-1.128-1.116-.423-.367-.876-.7-1.3-1.065-.424-.365-.849-.763-1.265-1.152a32.403 32.403 0 0 1-1.521-1.536 59.192 59.192 0 0 1-.753-.812 6.551 6.551 0 0 1-.312-.373l-.338-.428c-.287-.38-.577-.76-.837-1.16l-.244-.376a5.762 5.762 0 0 1-.435-.854l-.311-.725-.282-.745c-.09-.237-.154-.486-.23-.728-.076-.242-.115-.469-.171-.7-.027-.113-.042-.231-.063-.346l-.067-.368-.068-.558a8.479 8.479 0 0 1-.038-1.425c.02-.4.065-.8.105-1.206.06-.453.118-.907.194-1.358.048-.284.095-.569.153-.851.058-.282.124-.568.191-.852.123-.523.24-1.049.4-1.561.153-.481.338-.951.526-1.419.143-.317.286-.634.446-.942.16-.308.338-.606.532-.894.2-.3.4-.587.592-.882.192-.295.387-.583.593-.866.31-.393.631-.779.964-1.153.333-.374.7-.748 1.054-1.119.354-.371.743-.726 1.126-1.077.36-.333.727-.654 1.111-.958.2-.145.392-.289.595-.423.238-.157.483-.3.728-.45.222-.133.454-.253.684-.372.245-.127.484-.263.722-.4a24.038 24.038 0 0 1 2.903-1.498c.174-.07.35-.137.526-.2.171-.064.348-.114.523-.166.208-.062.417-.117.627-.172.178-.046.362-.073.542-.1.754-.128 1.512-.234 2.267-.353.467-.059.936-.114 1.405-.138.269-.014.538-.017.807-.017.346-.008.692.005 1.037.036l-.002-.01z"/>
        <path fill="#161616" fill-rule="nonzero" d="M29.375 30.358a1.4 1.4 0 0 0-.463.164 1.619 1.619 0 0 0-.262.187c-.09.07-.176.149-.254.233a3.183 3.183 0 0 0-.558 1 8.04 8.04 0 0 0-.229.66c-.06.23-.103.464-.13.7-.025.181-.051.362-.07.543-.033.312-.058.622-.07.935-.01.316.026.631.106.937a3.933 3.933 0 0 0 1.105 1.929c.214.204.455.378.716.516.239.123.481.24.72.364s.5.261.752.377a23.956 23.956 0 0 0 2.502.961c.087.027.174.052.262.077l.106.8c.038.283.061.568.09.852.059.574.107 1.149.167 1.722.116 1.12.183 2.244.269 3.365.033.438.076.874.126 1.31.045.392.081.786.129 1.178.1.839.192 1.679.3 2.516v-.009c.136 1.158.266 2.317.433 3.471.079.62.16 1.24.243 1.861 0 .044.006.087.017.129v.008c.132 1.068.285 2.133.437 3.2.137 1.062.245 2.129.411 3.187.088.554.2 1.1.3 1.654.107.589.21 1.178.308 1.769a.54.54 0 0 0 .987.129.574.574 0 0 0 .054-.416c-.128-.761-.26-1.521-.4-2.279-.061-.324-.128-.647-.18-.972-.049-.31-.094-.621-.137-.932-.1-.8-.184-1.6-.3-2.4-.105-.74-.209-1.481-.311-2.222-.021-.162-.043-.323-.063-.485a27.32 27.32 0 0 0-.051-.4l-.017-.127v-.05a22.571 22.571 0 0 0-.055-.382c-.086-.665-.169-1.329-.262-1.992-.129-1.031-.24-2.064-.378-3.094v.013c-.073-.592-.14-1.186-.209-1.778-.064-.542-.121-1.085-.183-1.626a36.695 36.695 0 0 1-.158-1.787c-.038-.58-.092-1.161-.131-1.742-.039-.581-.105-1.14-.164-1.709-.029-.279-.051-.559-.076-.839-.029-.323-.066-.645-.1-.968-.024-.233-.057-.466-.089-.7l.23.05c1.173.217 2.365.318 3.558.3a88.07 88.07 0 0 0 3.331.014l-.061.477c-.075.584-.133 1.171-.2 1.756-.061.557-.126 1.113-.172 1.67-.046.557-.1 1.143-.151 1.714-.055.61-.105 1.22-.168 1.829-.06.578-.116 1.154-.145 1.733-.029.579-.04 1.144-.052 1.716-.012.572-.051 1.152-.08 1.728-.031.6-.04 1.2-.053 1.8-.025 1.167-.019 2.334-.02 3.5v4.513c0 .383.028.763.053 1.144.023.36.039.721.05 1.082a56.138 56.138 0 0 1 .023.839c0 .041 0 .083.009.124l.031.228a.878.878 0 0 0 .09.236.539.539 0 0 0 .986-.129.529.529 0 0 0-.022-.339l-.009-.036c-.019-.261-.017-.524-.024-.786a36.78 36.78 0 0 0-.03-.8c-.029-.548-.075-1.095-.077-1.644-.006-1.126 0-2.252 0-3.379 0-1.166 0-2.333.009-3.5a63.1 63.1 0 0 1 .1-3.462c.069-1.171.056-2.344.144-3.515.043-.57.113-1.139.164-1.708.051-.569.1-1.13.153-1.7.078-.862.149-1.723.245-2.583.091-.821.179-1.643.283-2.462l.016-.114c.291-.033.58-.075.87-.119.558-.082 1.117-.162 1.675-.249.56-.077 1.1-.251 1.6-.515.124-.067.245-.142.361-.223.153-.107.29-.235.408-.379.088-.11.171-.224.252-.339.172-.247.34-.5.5-.752.2-.321.365-.663.491-1.02.082-.244.14-.496.173-.751.027-.184.058-.368.078-.553.07-.466.096-.937.078-1.408a15.793 15.793 0 0 0-.1-1.018 3.151 3.151 0 0 0-.389-1.222 2.226 2.226 0 0 0-.276-.37.978.978 0 0 0-.246-.169 2.75 2.75 0 0 0-.279-.119 4.9 4.9 0 0 0-.739-.2 3.817 3.817 0 0 0-.439-.069 1.294 1.294 0 0 0-.548.079 3 3 0 0 0-1.1.7c-.274.274-.526.57-.752.886a8.137 8.137 0 0 0-.662 1.057c-.21.4-.379.814-.557 1.225-.121.279-.238.561-.351.844-.1.26-.211.518-.293.786-.094.3-.179.61-.261.918a21.381 21.381 0 0 0-.424 1.964c-.24.007-.48.009-.721.01-.547 0-1.094-.002-1.641-.007-1.187-.011-2.375-.019-3.557-.139-.081-.008-.162-.019-.243-.03-.33-.055-.658-.122-.985-.194l-.289-.064a51.49 51.49 0 0 0-.258-1.666c-.106-.6-.237-1.187-.365-1.779a22.22 22.22 0 0 0-.4-1.578 6.352 6.352 0 0 0-.328-.905c-.119-.257-.233-.516-.361-.768a6.061 6.061 0 0 0-.407-.73 4.436 4.436 0 0 0-.323-.412 2.472 2.472 0 0 0-.993-.647c-.092-.036-.185-.067-.279-.1a4.123 4.123 0 0 0-.425-.106 3.264 3.264 0 0 0-.44-.054h-.082a3.028 3.028 0 0 0-.424.041v.01zm.625 1.05c.24.044.474.11.7.2.122.054.24.118.351.193.111.096.215.201.309.314.308.485.576.994.8 1.523l.112.279c.047.119.08.247.116.371l.2.726c.13.524.253 1.048.362 1.576.109.528.227 1.08.308 1.625l.082.55a22.441 22.441 0 0 1-1.583-.588 20.261 20.261 0 0 1-1.219-.581 9.481 9.481 0 0 1-1.093-.6 3.709 3.709 0 0 1-.419-.431 2.86 2.86 0 0 1-.585-1.405 7.159 7.159 0 0 1 .067-1.425l-.011.075c.031-.223.06-.445.1-.665.072-.334.176-.66.311-.974.07-.159.155-.31.253-.454.062-.069.129-.132.2-.191.043-.029.087-.057.133-.082.048-.015.096-.026.145-.035.121-.01.244-.01.365 0L30 31.408zm16.865.708c.123.024.244.052.365.08.172.037.342.085.508.143.027.013.052.027.077.041.028.04.056.079.082.121.037.063.07.127.1.194.09.26.15.528.183.8.025.253.045.506.063.76.015.439-.011.878-.078 1.312l-.056.382a3.8 3.8 0 0 1-.227.845 6.705 6.705 0 0 1-.432.772 12.05 12.05 0 0 1-.5.724 1.743 1.743 0 0 1-.2.2 3.8 3.8 0 0 1-.564.315c-.224.09-.455.16-.691.21-.291.06-.585.1-.879.145-.538.08-1.076.163-1.614.24a23.228 23.228 0 0 1 .681-2.707c.035-.115.088-.227.132-.338l.137-.342c.066-.166.136-.331.206-.5l.3-.7c.134-.293.274-.58.436-.858.166-.283.349-.556.547-.817.211-.275.45-.528.711-.755.134-.087.273-.165.417-.233a2.35 2.35 0 0 1 .142-.046c.049-.002.098-.002.147 0l.007.012z"/>
        <path fill="#161616" fill-rule="nonzero" d="M45.266 63.874a.545.545 0 0 0 .194.738c.151.086.309.163.455.259.056.052.108.107.156.165.096.139.179.285.249.438.08.218.137.443.172.672.019.177.026.356.023.534a6.467 6.467 0 0 1-.042.52c-.05.342-.138.677-.26 1-.081.168-.172.33-.271.488-.048.076-.1.149-.151.221v.008a.332.332 0 0 1-.032.042l-.073.1c-.025.034-.043.051-.065.076-.042.052-.084.1-.13.152-.058.062-.12.12-.186.173l-.031.025c-.063.051-.13.095-.2.143a2.317 2.317 0 0 1-.171.141.111.111 0 0 1-.082.026c-.249.162-.51.305-.779.429a9.661 9.661 0 0 1-2.03.563c-.528.054-1.057.062-1.585.1-.528.038-1.064.135-1.6.13-.571-.005-1.142-.057-1.712-.1-.272-.021-.545-.029-.818-.045a17.829 17.829 0 0 1-.808-.069c-.08-.008-.159-.021-.24-.032l.144.02c-.405-.068-.8-.161-1.2-.262a9.75 9.75 0 0 1-1.111-.352 3.008 3.008 0 0 1-.377-.2 6.002 6.002 0 0 1-.361-.244 5.826 5.826 0 0 1-.447-.414 5.948 5.948 0 0 1-.382-.413 1.984 1.984 0 0 1-.165-.3 2.25 2.25 0 0 1-.064-.191 1.054 1.054 0 0 1-.031-.146 6.166 6.166 0 0 1 .048-1.237c.025-.216.069-.429.13-.637a2.23 2.23 0 0 1 .178-.282c.155-.173.324-.334.505-.48a60.4 60.4 0 0 1 .671-.554.539.539 0 0 0-.382-.921.576.576 0 0 0-.381.158c-.239.2-.48.39-.714.591-.1.086-.2.172-.3.265-.16.163-.303.342-.429.533a1.9 1.9 0 0 0-.276.75c-.031.184-.061.369-.083.554a8.13 8.13 0 0 0-.066.838c-.018.357.03.714.144 1.053.058.158.128.311.21.458.106.17.229.33.368.474.377.423.812.791 1.29 1.095.26.153.536.278.822.373.256.092.517.168.779.241a9.977 9.977 0 0 0 1.712.35c.54.071 1.085.073 1.626.114.57.044 1.141.1 1.712.1.539 0 1.067-.086 1.6-.13.533-.044 1.09-.05 1.632-.109.3-.034.598-.089.89-.165.267-.068.534-.137.8-.223.284-.094.565-.2.839-.317.25-.111.49-.24.72-.388.253-.16.494-.338.723-.531a2.973 2.973 0 0 0 .594-.639 4.49 4.49 0 0 0 .74-1.4c.092-.31.156-.628.191-.949.035-.283.053-.569.052-.854a3.9 3.9 0 0 0-.051-.471 5.388 5.388 0 0 0-.077-.418 3.234 3.234 0 0 0-.334-.823 2.691 2.691 0 0 0-.4-.529 2.8 2.8 0 0 0-.738-.478.54.54 0 0 0-.738.193h.004z"/>
        <path fill="#161616" fill-rule="nonzero" d="M45.64 69.106c-.049.062-.1.124-.153.182-.058.062-.12.12-.186.173l-.031.025c-.062.051-.13.095-.2.143l-.021.019c.041.201.19.364.387.423l.067.022c.04.02.077.043.114.068.184.169.353.353.507.549.1.134.187.277.262.426.16.41.22.852.171 1.289a3.737 3.737 0 0 1-.149.6c-.042.082-.09.161-.142.237a3.141 3.141 0 0 1-.384.381c-.213.153-.44.285-.679.395-.698.278-1.42.492-2.156.64-.407.082-.814.173-1.224.242-.37.062-.74.114-1.111.166-.371.052-.724.1-1.086.152-.465.048-.931.066-1.4.09-.221.011-.442.025-.663.025a25.115 25.115 0 0 1-2.218-.111c-.441-.042-.884-.074-1.324-.129-.3-.048-.591-.1-.884-.175a5.738 5.738 0 0 1-.76-.263 3.963 3.963 0 0 1-.661-.37 3.759 3.759 0 0 1-.411-.4 2.613 2.613 0 0 1-.131-.193 2.706 2.706 0 0 1-.126-.242 3.849 3.849 0 0 1-.192-.691 2.413 2.413 0 0 1 0-.425c.034-.177.085-.351.151-.519.175-.388.392-.755.647-1.095.122-.155.247-.309.373-.461a.539.539 0 1 0-.764-.764c-.243.3-.488.592-.7.907a6.6 6.6 0 0 0-.375.645 4.024 4.024 0 0 0-.326.8 2.677 2.677 0 0 0-.041 1.2c.053.3.143.592.267.87.06.13.126.255.2.377.1.155.212.3.337.436a3.6 3.6 0 0 0 .734.6c.258.155.53.285.813.387.268.108.543.198.824.267.309.074.621.13.936.167.539.072 1.083.11 1.624.16.541.05 1.062.074 1.593.087.531.013 1.082-.02 1.623-.046.278-.013.554-.031.831-.06.277-.029.562-.081.843-.123a40.49 40.49 0 0 0 1.626-.23 30.542 30.542 0 0 0 1.667-.337c.53-.125 1.052-.284 1.562-.474a4.332 4.332 0 0 0 1.554-.931c.216-.206.393-.45.522-.719.145-.328.233-.678.262-1.036a3.04 3.04 0 0 0 .01-.588 8.19 8.19 0 0 0-.1-.68 2.756 2.756 0 0 0-.52-1.093 7.016 7.016 0 0 0-.445-.528 2.6 2.6 0 0 0-.344-.31 1.612 1.612 0 0 0-.507-.246l-.033.013-.062.076h.002z"/>
        <path fill="#161616" fill-rule="nonzero" d="M44 75.034c-.094.116-.184.235-.275.354l.085-.11c-.131.169-.258.341-.387.511-.113.146-.227.292-.338.44-.143.181-.286.363-.432.541-.164.198-.345.38-.542.546-.37.315-.739.631-1.121.932-.131.1-.262.2-.4.291-.123.085-.253.16-.388.224-.18.067-.366.116-.555.149-.114.01-.229.01-.343 0a7.984 7.984 0 0 1-.585-.125c-.219-.055-.441-.1-.661-.151a7.975 7.975 0 0 1-1.26-.383 7.073 7.073 0 0 1-1.229-.679 2.866 2.866 0 0 1-.368-.395c-.354-.476-.686-.969-1.021-1.459a.54.54 0 0 0-.932.545c.2.285.389.571.587.854.184.263.367.528.567.78.079.1.156.2.244.29.158.163.337.305.531.422.234.144.473.28.717.406.498.253 1.023.45 1.565.585.257.066.517.123.777.179.242.052.48.125.725.164.091.014.182.029.274.04.162.02.325.02.487 0a3.06 3.06 0 0 0 .478-.085c.283-.078.554-.194.806-.343.192-.124.377-.257.555-.4.217-.163.433-.332.639-.51.37-.292.722-.603 1.058-.933.153-.164.285-.348.426-.521.158-.193.308-.39.458-.588.15-.198.3-.389.445-.585l-.085.109.212-.275.048-.057a.581.581 0 0 0 .158-.382.539.539 0 0 0-.922-.382l.002.001zM38.29.54c-.018 1.475-.048 2.951-.076 4.426a.54.54 0 1 0 1.08 0c.027-1.475.058-2.951.076-4.426a.54.54 0 1 0-1.08 0zM58.624 3.96c-.522.632-1.037 1.27-1.552 1.907-.633.784-1.277 1.56-1.921 2.335a.581.581 0 0 0-.158.382.539.539 0 0 0 .922.382 224.36 224.36 0 0 0 1.92-2.335c.515-.638 1.03-1.275 1.552-1.907a.539.539 0 1 0-.763-.764zM70.748 18.884c-.421.269-.86.514-1.29.767l-1.194.7c-1 .586-2.004 1.164-3.013 1.734a.54.54 0 1 0 .545.932c1.008-.57 2.012-1.149 3.012-1.734l1.191-.7c.432-.253.872-.5 1.294-.769a.546.546 0 0 0 .194-.738.562.562 0 0 0-.476-.269.491.491 0 0 0-.263.075v.002zM14.637 6.871a.546.546 0 0 0-.158.382c.004.142.06.278.158.381.077.095.152.192.227.288 1.054 1.378 2.077 2.78 3.107 4.177a.581.581 0 0 0 .322.248.539.539 0 0 0 .609-.793c-.607-.824-1.212-1.649-1.823-2.47-.552-.742-1.1-1.491-1.679-2.213a.541.541 0 0 0-.763 0zM.6 21.023a.547.547 0 0 0 0 .764c.21.188.456.332.723.424l.584.26c.392.175.782.354 1.173.531.912.411 1.826.817 2.742 1.216l.128.054a.541.541 0 0 0 .416-.987c-.914-.396-1.825-.8-2.734-1.212l-1.167-.528-.546-.243a4 4 0 0 1-.529-.251l-.027-.028a.546.546 0 0 0-.763 0z"/>
        <path d="M-9-5h90v90H-9z"/>
    </g>
</svg>
