<svg xmlns="http://www.w3.org/2000/svg" width="16" height="21" viewBox="0 0 16 21">
    <path fill="#1B1B20" fill-rule="evenodd" d="M7.173 0L6.111 1.062 8 2.973c-.15-.009-.295-.024-.448-.024C3.398 2.95 0 6.347 0 10.5c0 1.133.23 2.186.684 3.091l1.133-1.133c-.15-.604-.307-1.28-.307-1.958 0-3.321 2.72-6.04 6.04-6.04.133 0 .272.014.402.023l-1.84 1.864L7.172 7.41l3.185-3.162.52-.543-.52-.542L7.173 0zm7.244 7.409l-1.133 1.133c.227.604.307 1.28.307 1.958 0 3.321-2.72 6.04-6.04 6.04-.133 0-.272-.014-.402-.023l1.84-1.864-1.06-1.062-3.186 3.162-.52.543.52.542L7.928 21l1.062-1.062-1.888-1.911c.148.009.301.024.449.024 4.152 0 7.55-3.398 7.55-7.551 0-1.133-.23-2.186-.684-3.091z"/>
</svg>
